<!-- GENERATED FILE - do not edit. Regenerate every figure and page with:
     dotnet run ––project tools/DocGen –– ––out docs/user
     (the flags above are ordinary double hyphens; XML comments cannot contain them.)
     Source: src/Ui/Diagnostics/UiArtworkGenerator.cs + tools/DocGen. -->
<svg xmlns="http://www.w3.org/2000/svg" xmlns:xlink="http://www.w3.org/1999/xlink" width="460" height="420" viewBox="0 0 460 420"><defs><path id="em3d-connector-setups_d0" d="M12 20Q11.8 20 11.61 19.99Q11.41 19.98 11.22 19.96Q11.02 19.94 10.83 19.91Q10.63 19.88 10.44 19.85Q10.25 19.81 10.06 19.76Q9.87 19.71 9.68 19.66Q9.49 19.6 9.3 19.53Q9.12 19.47 8.94 19.39Q8.76 19.32 8.58 19.23Q8.4 19.15 8.23 19.06Q8.06 18.96 7.89 18.86Q7.72 18.76 7.56 18.65Q7.39 18.54 7.23 18.43Q7.08 18.31 6.92 18.18Q6.77 18.06 6.63 17.93Q6.48 17.8 6.34 17.66Q6.2 17.52 6.07 17.37Q5.94 17.23 5.82 17.08Q5.69 16.92 5.57 16.77Q5.46 16.61 5.35 16.44Q5.24 16.28 5.14 16.11Q5.04 15.94 4.94 15.77Q4.85 15.6 4.77 15.42Q4.68 15.24 4.61 15.06Q4.53 14.88 4.47 14.7Q4.4 14.51 4.34 14.32Q4.29 14.13 4.24 13.94Q4.19 13.75 4.15 13.56Q4.12 13.37 4.09 13.17Q4.06 12.98 4.04 12.78Q4.02 12.59 4.01 12.39Q4 12.2 4 12Q4 11.8 4.01 11.61Q4.02 11.41 4.04 11.22Q4.06 11.02 4.09 10.83Q4.12 10.63 4.15 10.44Q4.19 10.25 4.24 10.06Q4.29 9.87 4.34 9.68Q4.4 9.49 4.47 9.3Q4.53 9.12 4.61 8.94Q4.68 8.76 4.77 8.58Q4.85 8.4 4.94 8.23Q5.04 8.06 5.14 7.89Q5.24 7.72 5.35 7.56Q5.46 7.39 5.57 7.23Q5.69 7.08 5.82 6.92Q5.94 6.77 6.07 6.63Q6.2 6.48 6.34 6.34Q6.48 6.2 6.63 6.07Q6.77 5.94 6.92 5.82Q7.08 5.69 7.23 5.57Q7.39 5.46 7.56 5.35Q7.72 5.24 7.89 5.14Q8.06 5.04 8.23 4.94Q8.4 4.85 8.58 4.77Q8.76 4.68 8.94 4.61Q9.12 4.53 9.3 4.47Q9.49 4.4 9.68 4.34Q9.87 4.29 10.06 4.24Q10.25 4.19 10.44 4.15Q10.63 4.12 10.83 4.09Q11.02 4.06 11.22 4.04Q11.41 4.02 11.61 4.01Q11.8 4 12 4Q12.2 4 12.39 4.01Q12.59 4.02 12.78 4.04Q12.98 4.06 13.17 4.09Q13.37 4.12 13.56 4.15Q13.75 4.19 13.94 4.24Q14.13 4.29 14.32 4.34Q14.51 4.4 14.7 4.47Q14.88 4.53 15.06 4.61Q15.24 4.68 15.42 4.77Q15.6 4.85 15.77 4.94Q15.94 5.04 16.11 5.14Q16.28 5.24 16.44 5.35Q16.61 5.46 16.77 5.57Q16.92 5.69 17.08 5.82Q17.23 5.94 17.37 6.07Q17.52 6.2 17.66 6.34Q17.8 6.48 17.93 6.63Q18.06 6.77 18.18 6.92Q18.31 7.08 18.43 7.23Q18.54 7.39 18.65 7.56Q18.76 7.72 18.86 7.89Q18.96 8.06 19.06 8.23Q19.15 8.4 19.23 8.58Q19.32 8.76 19.39 8.94Q19.47 9.12 19.53 9.3Q19.6 9.49 19.66 9.68Q19.71 9.87 19.76 10.06Q19.81 10.25 19.85 10.44Q19.88 10.63 19.91 10.83Q19.94 11.02 19.96 11.22Q19.98 11.41 19.99 11.61Q20 11.8 20 12Q20 12.2 19.99 12.39Q19.98 12.59 19.96 12.78Q19.94 12.98 19.91 13.17Q19.88 13.37 19.85 13.56Q19.81 13.75 19.76 13.94Q19.71 14.13 19.66 14.32Q19.6 14.51 19.53 14.7Q19.47 14.88 19.39 15.06Q19.32 15.24 19.23 15.42Q19.15 15.6 19.06 15.77Q18.96 15.94 18.86 16.11Q18.76 16.28 18.65 16.44Q18.54 16.61 18.43 16.77Q18.31 16.92 18.18 17.08Q18.06 17.23 17.93 17.37Q17.8 17.52 17.66 17.66Q17.52 17.8 17.37 17.93Q17.23 18.06 17.08 18.18Q16.92 18.31 16.77 18.43Q16.61 18.54 16.44 18.65Q16.28 18.76 16.11 18.86Q15.94 18.96 15.77 19.06Q15.6 19.15 15.42 19.23Q15.24 19.32 15.06 19.39Q14.88 19.47 14.7 19.53Q14.51 19.6 14.32 19.66Q14.13 19.71 13.94 19.76Q13.75 19.81 13.56 19.85Q13.37 19.88 13.17 19.91Q12.98 19.94 12.78 19.96Q12.59 19.98 12.39 19.99Q12.2 20 12 20M12 2Q11.75 2 11.51 2.01Q11.26 2.02 11.02 2.05Q10.78 2.07 10.53 2.11Q10.29 2.14 10.05 2.19Q9.81 2.24 9.57 2.3Q9.33 2.36 9.1 2.43Q8.86 2.5 8.63 2.58Q8.4 2.67 8.17 2.76Q7.95 2.86 7.72 2.96Q7.5 3.07 7.29 3.18Q7.07 3.3 6.86 3.42Q6.65 3.55 6.44 3.69Q6.24 3.82 6.04 3.97Q5.85 4.11 5.66 4.27Q5.47 4.43 5.28 4.59Q5.1 4.76 4.93 4.93Q4.76 5.1 4.59 5.28Q4.43 5.47 4.27 5.66Q4.11 5.85 3.97 6.04Q3.82 6.24 3.69 6.44Q3.55 6.65 3.42 6.86Q3.3 7.07 3.18 7.29Q3.07 7.5 2.96 7.72Q2.86 7.95 2.76 8.17Q2.67 8.4 2.58 8.63Q2.5 8.86 2.43 9.1Q2.36 9.33 2.3 9.57Q2.24 9.81 2.19 10.05Q2.14 10.29 2.11 10.53Q2.07 10.78 2.05 11.02Q2.02 11.26 2.01 11.51Q2 11.75 2 12Q2 12.25 2.01 12.49Q2.02 12.74 2.05 12.98Q2.07 13.22 2.11 13.47Q2.14 13.71 2.19 13.95Q2.24 14.19 2.3 14.43Q2.36 14.67 2.43 14.9Q2.5 15.14 2.58 15.37Q2.67 15.6 2.76 15.83Q2.86 16.05 2.96 16.28Q3.07 16.5 3.18 16.71Q3.3 16.93 3.42 17.14Q3.55 17.35 3.69 17.56Q3.82 17.76 3.97 17.96Q4.11 18.15 4.27 18.34Q4.43 18.53 4.59 18.72Q4.76 18.9 4.93 19.07Q5.1 19.24 5.28 19.41Q5.47 19.57 5.66 19.73Q5.85 19.89 6.04 20.03Q6.24 20.18 6.44 20.31Q6.65 20.45 6.86 20.58Q7.07 20.7 7.29 20.82Q7.5 20.93 7.72 21.04Q7.95 21.14 8.17 21.24Q8.4 21.33 8.63 21.42Q8.86 21.5 9.1 21.57Q9.33 21.64 9.57 21.7Q9.81 21.76 10.05 21.81Q10.29 21.86 10.53 21.89Q10.78 21.93 11.02 21.95Q11.26 21.98 11.51 21.99Q11.75 22 12 22Q12.25 22 12.49 21.99Q12.74 21.98 12.98 21.95Q13.22 21.93 13.47 21.89Q13.71 21.86 13.95 21.81Q14.19 21.76 14.43 21.7Q14.67 21.64 14.9 21.57Q15.14 21.5 15.37 21.42Q15.6 21.33 15.83 21.24Q16.05 21.14 16.28 21.04Q16.5 20.93 16.71 20.82Q16.93 20.7 17.14 20.58Q17.35 20.45 17.56 20.31Q17.76 20.18 17.96 20.03Q18.15 19.89 18.34 19.73Q18.53 19.57 18.72 19.41Q18.9 19.24 19.07 19.07Q19.24 18.9 19.41 18.72Q19.57 18.53 19.73 18.34Q19.89 18.15 20.03 17.96Q20.18 17.76 20.31 17.56Q20.45 17.35 20.58 17.14Q20.7 16.93 20.82 16.71Q20.93 16.5 21.04 16.28Q21.14 16.05 21.24 15.83Q21.33 15.6 21.42 15.37Q21.5 15.14 21.57 14.9Q21.64 14.67 21.7 14.43Q21.76 14.19 21.81 13.95Q21.86 13.71 21.89 13.47Q21.93 13.22 21.95 12.98Q21.98 12.74 21.99 12.49Q22 12.25 22 12Q22 11.75 21.99 11.51Q21.98 11.26 21.95 11.02Q21.93 10.78 21.89 10.53Q21.86 10.29 21.81 10.05Q21.76 9.81 21.7 9.57Q21.64 9.33 21.57 9.1Q21.5 8.86 21.42 8.63Q21.33 8.4 21.24 8.17Q21.14 7.95 21.04 7.72Q20.93 7.5 20.82 7.29Q20.7 7.07 20.58 6.86Q20.45 6.65 20.31 6.44Q20.18 6.24 20.03 6.04Q19.89 5.85 19.73 5.66Q19.57 5.47 19.41 5.28Q19.24 5.1 19.07 4.93Q18.9 4.76 18.72 4.59Q18.53 4.43 18.34 4.27Q18.15 4.11 17.96 3.97Q17.76 3.82 17.56 3.69Q17.35 3.55 17.14 3.42Q16.93 3.3 16.71 3.18Q16.5 3.07 16.28 2.96Q16.05 2.86 15.83 2.76Q15.6 2.67 15.37 2.58Q15.14 2.5 14.9 2.43Q14.67 2.36 14.43 2.3Q14.19 2.24 13.95 2.19Q13.71 2.14 13.47 2.11Q13.22 2.07 12.98 2.05Q12.74 2.02 12.49 2.01Q12.25 2 12 2M12 7Q11.88 7 11.75 7.01Q11.63 7.01 11.51 7.02Q11.39 7.04 11.27 7.05Q11.14 7.07 11.02 7.1Q10.9 7.12 10.79 7.15Q10.67 7.18 10.55 7.22Q10.43 7.25 10.32 7.29Q10.2 7.33 10.09 7.38Q9.97 7.43 9.86 7.48Q9.75 7.53 9.64 7.59Q9.53 7.65 9.43 7.71Q9.32 7.77 9.22 7.84Q9.12 7.91 9.02 7.98Q8.92 8.06 8.83 8.13Q8.73 8.21 8.64 8.3Q8.55 8.38 8.46 8.46Q8.38 8.55 8.3 8.64Q8.21 8.73 8.13 8.83Q8.06 8.92 7.98 9.02Q7.91 9.12 7.84 9.22Q7.77 9.32 7.71 9.43Q7.65 9.53 7.59 9.64Q7.53 9.75 7.48 9.86Q7.43 9.97 7.38 10.09Q7.33 10.2 7.29 10.32Q7.25 10.43 7.22 10.55Q7.18 10.67 7.15 10.79Q7.12 10.9 7.1 11.02Q7.07 11.14 7.05 11.27Q7.04 11.39 7.02 11.51Q7.01 11.63 7.01 11.75Q7 11.88 7 12Q7 12.12 7.01 12.25Q7.01 12.37 7.02 12.49Q7.04 12.61 7.05 12.73Q7.07 12.86 7.1 12.98Q7.12 13.1 7.15 13.21Q7.18 13.33 7.22 13.45Q7.25 13.57 7.29 13.68Q7.33 13.8 7.38 13.91Q7.43 14.03 7.48 14.14Q7.53 14.25 7.59 14.36Q7.65 14.47 7.71 14.57Q7.77 14.68 7.84 14.78Q7.91 14.88 7.98 14.98Q8.06 15.08 8.13 15.17Q8.21 15.27 8.3 15.36Q8.38 15.45 8.46 15.54Q8.55 15.62 8.64 15.7Q8.73 15.79 8.83 15.87Q8.92 15.94 9.02 16.02Q9.12 16.09 9.22 16.16Q9.32 16.23 9.43 16.29Q9.53 16.35 9.64 16.41Q9.75 16.47 9.86 16.52Q9.97 16.57 10.09 16.62Q10.2 16.67 10.32 16.71Q10.43 16.75 10.55 16.78Q10.67 16.82 10.79 16.85Q10.9 16.88 11.02 16.9Q11.14 16.93 11.27 16.95Q11.39 16.96 11.51 16.98Q11.63 16.99 11.75 16.99Q11.88 17 12 17Q12.12 17 12.25 16.99Q12.37 16.99 12.49 16.98Q12.61 16.96 12.73 16.95Q12.86 16.93 12.98 16.9Q13.1 16.88 13.21 16.85Q13.33 16.82 13.45 16.78Q13.57 16.75 13.68 16.71Q13.8 16.67 13.91 16.62Q14.03 16.57 14.14 16.52Q14.25 16.47 14.36 16.41Q14.47 16.35 14.57 16.29Q14.68 16.23 14.78 16.16Q14.88 16.09 14.98 16.02Q15.08 15.94 15.17 15.87Q15.27 15.79 15.36 15.7Q15.45 15.62 15.54 15.54Q15.62 15.45 15.7 15.36Q15.79 15.27 15.87 15.17Q15.94 15.08 16.02 14.98Q16.09 14.88 16.16 14.78Q16.23 14.68 16.29 14.57Q16.35 14.47 16.41 14.36Q16.47 14.25 16.52 14.14Q16.57 14.03 16.62 13.91Q16.67 13.8 16.71 13.68Q16.75 13.57 16.78 13.45Q16.82 13.33 16.85 13.21Q16.88 13.1 16.9 12.98Q16.93 12.86 16.95 12.73Q16.96 12.61 16.98 12.49Q16.99 12.37 16.99 12.25Q17 12.12 17 12Q17 11.88 16.99 11.75Q16.99 11.63 16.98 11.51Q16.96 11.39 16.95 11.27Q16.93 11.14 16.9 11.02Q16.88 10.9 16.85 10.79Q16.82 10.67 16.78 10.55Q16.75 10.43 16.71 10.32Q16.67 10.2 16.62 10.09Q16.57 9.97 16.52 9.86Q16.47 9.75 16.41 9.64Q16.35 9.53 16.29 9.43Q16.23 9.32 16.16 9.22Q16.09 9.12 16.02 9.02Q15.94 8.92 15.87 8.83Q15.79 8.73 15.7 8.64Q15.62 8.55 15.54 8.46Q15.45 8.38 15.36 8.3Q15.27 8.21 15.17 8.13Q15.08 8.06 14.98 7.98Q14.88 7.91 14.78 7.84Q14.68 7.77 14.57 7.71Q14.47 7.65 14.36 7.59Q14.25 7.53 14.14 7.48Q14.03 7.43 13.91 7.38Q13.8 7.33 13.68 7.29Q13.57 7.25 13.45 7.22Q13.33 7.18 13.21 7.15Q13.1 7.12 12.98 7.1Q12.86 7.07 12.73 7.05Q12.61 7.04 12.49 7.02Q12.37 7.01 12.25 7.01Q12.12 7 12 7Z" /><path id="em3d-connector-setups_d1" d="M0 12L0 3Q0 2.85 0.01445 2.71Q0.02889 2.56 0.05764 2.41Q0.0864 2.27 0.1292 2.13Q0.172 1.99 0.2284 1.85Q0.2848 1.72 0.3542 1.59Q0.4237 1.46 0.5056 1.33Q0.5875 1.21 0.681 1.1Q0.7745 0.9829 0.8787 0.8787Q0.9829 0.7745 1.1 0.681Q1.21 0.5875 1.33 0.5056Q1.46 0.4237 1.59 0.3542Q1.72 0.2848 1.85 0.2284Q1.99 0.172 2.13 0.1292Q2.27 0.0864 2.41 0.05764Q2.56 0.02889 2.71 0.01445Q2.85 0 3 0L18 0Q18.15 0 18.29 0.01445Q18.44 0.02889 18.59 0.05764Q18.73 0.0864 18.87 0.1292Q19.01 0.172 19.15 0.2284Q19.28 0.2848 19.41 0.3542Q19.54 0.4237 19.67 0.5056Q19.79 0.5875 19.9 0.681Q20.02 0.7745 20.12 0.8787Q20.23 0.9829 20.32 1.1Q20.41 1.21 20.49 1.33Q20.58 1.46 20.65 1.59Q20.72 1.72 20.77 1.85Q20.83 1.99 20.87 2.13Q20.91 2.27 20.94 2.41Q20.97 2.56 20.99 2.71Q21 2.85 21 3L21 12Q21 12.15 20.99 12.29Q20.97 12.44 20.94 12.59Q20.91 12.73 20.87 12.87Q20.83 13.01 20.77 13.15Q20.72 13.28 20.65 13.41Q20.58 13.54 20.49 13.67Q20.41 13.79 20.32 13.9Q20.23 14.02 20.12 14.12Q20.02 14.23 19.9 14.32Q19.79 14.41 19.67 14.49Q19.54 14.58 19.41 14.65Q19.28 14.72 19.15 14.77Q19.01 14.83 18.87 14.87Q18.73 14.91 18.59 14.94Q18.44 14.97 18.29 14.99Q18.15 15 18 15L3 15Q2.85 15 2.71 14.99Q2.56 14.97 2.41 14.94Q2.27 14.91 2.13 14.87Q1.99 14.83 1.85 14.77Q1.72 14.72 1.59 14.65Q1.46 14.58 1.33 14.49Q1.21 14.41 1.1 14.32Q0.9829 14.23 0.8787 14.12Q0.7745 14.02 0.681 13.9Q0.5875 13.79 0.5056 13.67Q0.4237 13.54 0.3542 13.41Q0.2848 13.28 0.2284 13.15Q0.172 13.01 0.1292 12.87Q0.0864 12.73 0.05764 12.59Q0.02889 12.44 0.01445 12.29Q0 12.15 0 12Z" /><path id="em3d-connector-setups_d2" d="M11 9L13 9L13 7L11 7M12 20C7.59 20 4 16.41 4 12C4 7.59 7.59 4 12 4C16.41 4 20 7.59 20 12C20 16.41 16.41 20 12 20M12 2Q11.75 2 11.51 2.01Q11.26 2.02 11.02 2.05Q10.78 2.07 10.53 2.11Q10.29 2.14 10.05 2.19Q9.81 2.24 9.57 2.3Q9.33 2.36 9.1 2.43Q8.86 2.5 8.63 2.58Q8.4 2.67 8.17 2.76Q7.95 2.86 7.72 2.96Q7.5 3.07 7.29 3.18Q7.07 3.3 6.86 3.42Q6.65 3.55 6.44 3.69Q6.24 3.82 6.04 3.97Q5.85 4.11 5.66 4.27Q5.47 4.43 5.28 4.59Q5.1 4.76 4.93 4.93Q4.76 5.1 4.59 5.28Q4.43 5.47 4.27 5.66Q4.11 5.85 3.97 6.04Q3.82 6.24 3.69 6.44Q3.55 6.65 3.42 6.86Q3.3 7.07 3.18 7.29Q3.07 7.5 2.96 7.72Q2.86 7.95 2.76 8.17Q2.67 8.4 2.58 8.63Q2.5 8.86 2.43 9.1Q2.36 9.33 2.3 9.57Q2.24 9.81 2.19 10.05Q2.14 10.29 2.11 10.53Q2.07 10.78 2.05 11.02Q2.02 11.26 2.01 11.51Q2 11.75 2 12Q2 12.25 2.01 12.49Q2.02 12.74 2.05 12.98Q2.07 13.22 2.11 13.47Q2.14 13.71 2.19 13.95Q2.24 14.19 2.3 14.43Q2.36 14.67 2.43 14.9Q2.5 15.14 2.58 15.37Q2.67 15.6 2.76 15.83Q2.86 16.05 2.96 16.28Q3.07 16.5 3.18 16.71Q3.3 16.93 3.42 17.14Q3.55 17.35 3.69 17.56Q3.82 17.76 3.97 17.96Q4.11 18.15 4.27 18.34Q4.43 18.53 4.59 18.72Q4.76 18.9 4.93 19.07Q5.1 19.24 5.28 19.41Q5.47 19.57 5.66 19.73Q5.85 19.89 6.04 20.03Q6.24 20.18 6.44 20.31Q6.65 20.45 6.86 20.58Q7.07 20.7 7.29 20.82Q7.5 20.93 7.72 21.04Q7.95 21.14 8.17 21.24Q8.4 21.33 8.63 21.42Q8.86 21.5 9.1 21.57Q9.33 21.64 9.57 21.7Q9.81 21.76 10.05 21.81Q10.29 21.86 10.53 21.89Q10.78 21.93 11.02 21.95Q11.26 21.98 11.51 21.99Q11.75 22 12 22Q12.25 22 12.49 21.99Q12.74 21.98 12.98 21.95Q13.22 21.93 13.47 21.89Q13.71 21.86 13.95 21.81Q14.19 21.76 14.43 21.7Q14.67 21.64 14.9 21.57Q15.14 21.5 15.37 21.42Q15.6 21.33 15.83 21.24Q16.05 21.14 16.28 21.04Q16.5 20.93 16.71 20.82Q16.93 20.7 17.14 20.58Q17.35 20.45 17.56 20.31Q17.76 20.18 17.96 20.03Q18.15 19.89 18.34 19.73Q18.53 19.57 18.72 19.41Q18.9 19.24 19.07 19.07Q19.24 18.9 19.41 18.72Q19.57 18.53 19.73 18.34Q19.89 18.15 20.03 17.96Q20.18 17.76 20.31 17.56Q20.45 17.35 20.58 17.14Q20.7 16.93 20.82 16.71Q20.93 16.5 21.04 16.28Q21.14 16.05 21.24 15.83Q21.33 15.6 21.42 15.37Q21.5 15.14 21.57 14.9Q21.64 14.67 21.7 14.43Q21.76 14.19 21.81 13.95Q21.86 13.71 21.89 13.47Q21.93 13.22 21.95 12.98Q21.98 12.74 21.99 12.49Q22 12.25 22 12Q22 11.75 21.99 11.51Q21.98 11.26 21.95 11.02Q21.93 10.78 21.89 10.53Q21.86 10.29 21.81 10.05Q21.76 9.81 21.7 9.57Q21.64 9.33 21.57 9.1Q21.5 8.86 21.42 8.63Q21.33 8.4 21.24 8.17Q21.14 7.95 21.04 7.72Q20.93 7.5 20.82 7.29Q20.7 7.07 20.58 6.86Q20.45 6.65 20.31 6.44Q20.18 6.24 20.03 6.04Q19.89 5.85 19.73 5.66Q19.57 5.47 19.41 5.28Q19.24 5.1 19.07 4.93Q18.9 4.76 18.72 4.59Q18.53 4.43 18.34 4.27Q18.15 4.11 17.96 3.97Q17.76 3.82 17.56 3.69Q17.35 3.55 17.14 3.42Q16.93 3.3 16.71 3.18Q16.5 3.07 16.28 2.96Q16.05 2.86 15.83 2.76Q15.6 2.67 15.37 2.58Q15.14 2.5 14.9 2.43Q14.67 2.36 14.43 2.3Q14.19 2.24 13.95 2.19Q13.71 2.14 13.47 2.11Q13.22 2.07 12.98 2.05Q12.74 2.02 12.49 2.01Q12.25 2 12 2M11 17L13 17L13 11L11 11L11 17Z" /></defs><rect fill="white" width="460" height="420" /><rect fill="#F6F8FA" width="460" height="420" /><clipPath id="em3d-connector-setups_cl_0"><rect x="4" y="4" width="21" height="19" /></clipPath><g clip-path="url(#em3d-connector-setups_cl_0)"><clipPath id="em3d-connector-setups_cl_1"><rect x="7" y="6" width="15" height="15" /></clipPath><g clip-path="url(#em3d-connector-setups_cl_1)"><path fill="#010101" fill-opacity="0.6" transform="matrix(0.625 0 0 0.625 7 6)" d="M8 5.14L8 19.14L19 12.14L8 5.14Z" fill-rule="evenodd" /></g></g><clipPath id="em3d-connector-setups_cl_2"><rect x="30" y="6" width="140" height="15" /></clipPath><g clip-path="url(#em3d-connector-setups_cl_2)"><text fill="#010101" transform="translate(30 6)" font-size="12" font-weight="600" font-family="Inter" x="0, 7.46, 10.44, 17.02, 24.14, 28.7, 36, 43.49, 50.08, 53.06, 56.54, 59.52, 66.42, 73.35, 77.91, 81.03, 87.72, 94.83, 98.32, 101.3, 108.9, 115.8, 118.93, 125.82, 132.75" y="11.63">
							2 setups · active: Palace
					</text></g><clipPath id="em3d-connector-setups_cl_3"><rect x="4" y="24" width="20" height="18" /></clipPath><g clip-path="url(#em3d-connector-setups_cl_3)"><clipPath id="em3d-connector-setups_cl_4"><rect x="7" y="26" width="14" height="14" /></clipPath><g clip-path="url(#em3d-connector-setups_cl_4)"><path fill="#010101" fill-opacity="0.6" transform="matrix(0.5833 0 0 0.5833 7 26)" d="M19 13L13 13L13 19L11 19L11 13L5 13L5 11L11 11L11 5L13 5L13 11L19 11L19 13Z" fill-rule="evenodd" /></g></g><clipPath id="em3d-connector-setups_cl_5"><rect x="25" y="24" width="20" height="18" /></clipPath><g clip-path="url(#em3d-connector-setups_cl_5)"><clipPath id="em3d-connector-setups_cl_6"><rect x="28" y="26" width="14" height="14" /></clipPath><g clip-path="url(#em3d-connector-setups_cl_6)"><path fill="#010101" fill-opacity="0.6" transform="matrix(0.5833 0 0 0.5833 28 26)" d="M19 11L19 8L17 8L17 11L14 11L14 13L17 13L17 16L19 16L19 13L22 13L22 11M11 13L11 5C11 3.34 9.66 2 8 2C6.34 2 5 3.34 5 5L5 13C2.79 14.66 2.34 17.79 4 20C5.66 22.21 8.79 22.66 11 21C13.21 19.34 13.66 16.21 12 14C11.72 13.62 11.38 13.28 11 13M8 4C8.55 4 9 4.45 9 5L9 8L7 8L7 5C7 4.45 7.45 4 8 4Z" fill-rule="evenodd" /></g></g><clipPath id="em3d-connector-setups_cl_7"><rect x="46" y="24" width="20" height="18" /></clipPath><g clip-path="url(#em3d-connector-setups_cl_7)"><clipPath id="em3d-connector-setups_cl_8"><rect x="49" y="26" width="14" height="14" /></clipPath><g clip-path="url(#em3d-connector-setups_cl_8)"><path fill="#010101" fill-opacity="0.6" transform="matrix(0.5833 0 0 0.5833 49 26)" d="M20.71 7.04C21.1 6.65 21.1 6 20.71 5.63L18.37 3.29C18 2.9 17.35 2.9 16.96 3.29L15.12 5.12L18.87 8.87M3 17.25L3 21L6.75 21L17.81 9.93L14.06 6.18L3 17.25Z" fill-rule="evenodd" /></g></g><clipPath id="em3d-connector-setups_cl_9"><rect x="67" y="24" width="20" height="18" /></clipPath><g clip-path="url(#em3d-connector-setups_cl_9)"><clipPath id="em3d-connector-setups_cl_10"><rect x="70" y="26" width="14" height="14" /></clipPath><g clip-path="url(#em3d-connector-setups_cl_10)"><path fill="#010101" fill-opacity="0.6" transform="matrix(0.5833 0 0 0.5833 70 26)" d="M19 21L8 21L8 7L19 7M19 5L8 5Q7.9 5 7.8 5.01Q7.71 5.02 7.61 5.04Q7.51 5.06 7.42 5.09Q7.33 5.11 7.23 5.15Q7.14 5.19 7.06 5.24Q6.97 5.28 6.89 5.34Q6.81 5.39 6.73 5.45Q6.66 5.52 6.59 5.59Q6.52 5.66 6.45 5.73Q6.39 5.81 6.34 5.89Q6.28 5.97 6.24 6.06Q6.19 6.14 6.15 6.23Q6.11 6.33 6.09 6.42Q6.06 6.51 6.04 6.61Q6.02 6.71 6.01 6.8Q6 6.9 6 7L6 21Q6 21.1 6.01 21.2Q6.02 21.29 6.04 21.39Q6.06 21.49 6.09 21.58Q6.11 21.67 6.15 21.77Q6.19 21.86 6.24 21.94Q6.28 22.03 6.34 22.11Q6.39 22.19 6.45 22.27Q6.52 22.34 6.59 22.41Q6.66 22.48 6.73 22.55Q6.81 22.61 6.89 22.66Q6.97 22.72 7.06 22.76Q7.14 22.81 7.23 22.85Q7.33 22.89 7.42 22.91Q7.51 22.94 7.61 22.96Q7.71 22.98 7.8 22.99Q7.9 23 8 23L19 23Q19.1 23 19.2 22.99Q19.29 22.98 19.39 22.96Q19.49 22.94 19.58 22.91Q19.67 22.89 19.77 22.85Q19.86 22.81 19.94 22.76Q20.03 22.72 20.11 22.66Q20.19 22.61 20.27 22.55Q20.34 22.48 20.41 22.41Q20.48 22.34 20.55 22.27Q20.61 22.19 20.66 22.11Q20.72 22.03 20.76 21.94Q20.81 21.86 20.85 21.77Q20.89 21.67 20.91 21.58Q20.94 21.49 20.96 21.39Q20.98 21.29 20.99 21.2Q21 21.1 21 21L21 7Q21 6.9 20.99 6.8Q20.98 6.71 20.96 6.61Q20.94 6.51 20.91 6.42Q20.89 6.33 20.85 6.23Q20.81 6.14 20.76 6.06Q20.72 5.97 20.66 5.89Q20.61 5.81 20.55 5.73Q20.48 5.66 20.41 5.59Q20.34 5.52 20.27 5.45Q20.19 5.39 20.11 5.34Q20.03 5.28 19.94 5.24Q19.86 5.19 19.77 5.15Q19.67 5.11 19.58 5.09Q19.49 5.06 19.39 5.04Q19.29 5.02 19.2 5.01Q19.1 5 19 5M16 1L4 1Q3.9 1 3.8 1.01Q3.71 1.02 3.61 1.04Q3.51 1.06 3.42 1.09Q3.33 1.11 3.23 1.15Q3.14 1.19 3.06 1.24Q2.97 1.28 2.89 1.34Q2.81 1.39 2.73 1.45Q2.66 1.52 2.59 1.59Q2.52 1.66 2.45 1.73Q2.39 1.81 2.34 1.89Q2.28 1.97 2.24 2.06Q2.19 2.14 2.15 2.23Q2.11 2.33 2.09 2.42Q2.06 2.51 2.04 2.61Q2.02 2.71 2.01 2.8Q2 2.9 2 3L2 17L4 17L4 3L16 3L16 1Z" fill-rule="evenodd" /></g></g><clipPath id="em3d-connector-setups_cl_11"><rect x="88" y="24" width="20" height="18" /></clipPath><g clip-path="url(#em3d-connector-setups_cl_11)"><clipPath id="em3d-connector-setups_cl_12"><rect x="91" y="26" width="14" height="14" /></clipPath><g clip-path="url(#em3d-connector-setups_cl_12)"><path fill="#010101" fill-opacity="0.6" transform="matrix(0.5833 0 0 0.5833 91 26)" d="M17 7L22 7L22 17L17 17L17 19Q17 19.1 17.02 19.2Q17.04 19.29 17.08 19.38Q17.11 19.47 17.17 19.56Q17.22 19.64 17.29 19.71Q17.36 19.78 17.44 19.83Q17.53 19.89 17.62 19.92Q17.71 19.96 17.8 19.98Q17.9 20 18 20L20 20L20 22L17.5 22C16.95 22 16 21.55 16 21C16 21.55 15.05 22 14.5 22L12 22L12 20L14 20Q14.1 20 14.2 19.98Q14.29 19.96 14.38 19.92Q14.47 19.89 14.56 19.83Q14.64 19.78 14.71 19.71Q14.78 19.64 14.83 19.56Q14.89 19.47 14.92 19.38Q14.96 19.29 14.98 19.2Q15 19.1 15 19L15 5Q15 4.9 14.98 4.8Q14.96 4.71 14.92 4.62Q14.89 4.53 14.83 4.44Q14.78 4.36 14.71 4.29Q14.64 4.22 14.56 4.17Q14.47 4.11 14.38 4.08Q14.29 4.04 14.2 4.02Q14.1 4 14 4L12 4L12 2L14.5 2C15.05 2 16 2.45 16 3C16 2.45 16.95 2 17.5 2L20 2L20 4L18 4Q17.9 4 17.8 4.02Q17.71 4.04 17.62 4.08Q17.53 4.11 17.44 4.17Q17.36 4.22 17.29 4.29Q17.22 4.36 17.17 4.44Q17.11 4.53 17.08 4.62Q17.04 4.71 17.02 4.8Q17 4.9 17 5L17 7M2 7L13 7L13 9L4 9L4 15L13 15L13 17L2 17L2 7M20 15L20 9L17 9L17 15L20 15Z" fill-rule="evenodd" /></g></g><clipPath id="em3d-connector-setups_cl_13"><rect x="109" y="24" width="20" height="18" /></clipPath><g clip-path="url(#em3d-connector-setups_cl_13)"><clipPath id="em3d-connector-setups_cl_14"><rect x="112" y="26" width="14" height="14" /></clipPath><g clip-path="url(#em3d-connector-setups_cl_14)"><path fill="#010101" fill-opacity="0.6" transform="matrix(0.5833 0 0 0.5833 112 26)" d="M19 4L15.5 4L14.5 3L9.5 3L8.5 4L5 4L5 6L19 6M6 19Q6 19.1 6.01 19.2Q6.02 19.29 6.04 19.39Q6.06 19.49 6.09 19.58Q6.11 19.67 6.15 19.77Q6.19 19.86 6.24 19.94Q6.28 20.03 6.34 20.11Q6.39 20.19 6.45 20.27Q6.52 20.34 6.59 20.41Q6.66 20.48 6.73 20.55Q6.81 20.61 6.89 20.66Q6.97 20.72 7.06 20.76Q7.14 20.81 7.23 20.85Q7.33 20.89 7.42 20.91Q7.51 20.94 7.61 20.96Q7.71 20.98 7.8 20.99Q7.9 21 8 21L16 21Q16.1 21 16.2 20.99Q16.29 20.98 16.39 20.96Q16.49 20.94 16.58 20.91Q16.67 20.89 16.77 20.85Q16.86 20.81 16.94 20.76Q17.03 20.72 17.11 20.66Q17.19 20.61 17.27 20.55Q17.34 20.48 17.41 20.41Q17.48 20.34 17.55 20.27Q17.61 20.19 17.66 20.11Q17.72 20.03 17.76 19.94Q17.81 19.86 17.85 19.77Q17.89 19.67 17.91 19.58Q17.94 19.49 17.96 19.39Q17.98 19.29 17.99 19.2Q18 19.1 18 19L18 7L6 7L6 19Z" fill-rule="evenodd" /></g></g><rect fill="#010101" fill-opacity="0.2" transform="translate(131 27)" width="1" height="12" /><clipPath id="em3d-connector-setups_cl_15"><rect x="136" y="24" width="20" height="18" /></clipPath><g clip-path="url(#em3d-connector-setups_cl_15)"><clipPath id="em3d-connector-setups_cl_16"><rect x="139" y="26" width="14" height="14" /></clipPath><g clip-path="url(#em3d-connector-setups_cl_16)"><use xlink:href="#em3d-connector-setups_d0" fill="#010101" fill-opacity="0.6" transform="matrix(0.5833 0 0 0.5833 139 26)" fill-rule="evenodd" /></g></g><clipPath id="em3d-connector-setups_cl_17"><rect y="44" width="460" height="376" /></clipPath><g clip-path="url(#em3d-connector-setups_cl_17)"><clipPath id="em3d-connector-setups_cl_18"><rect y="44" width="460" height="76" /></clipPath><g clip-path="url(#em3d-connector-setups_cl_18)"><clipPath id="em3d-connector-setups_cl_19"><rect x="4" y="75" width="15" height="15" /></clipPath><g clip-path="url(#em3d-connector-setups_cl_19)"><use xlink:href="#em3d-connector-setups_d0" fill="#010101" transform="matrix(0.625 0 0 0.625 4 75)" fill-rule="evenodd" /></g><use xlink:href="#em3d-connector-setups_d1" fill="#010101" fill-opacity="0.09804" transform="translate(25 75)" /><clipPath id="em3d-connector-setups_cl_20"><rect x="29" y="76" width="13" height="13" /></clipPath><g clip-path="url(#em3d-connector-setups_cl_20)"><text fill="#010101" fill-opacity="0.8" transform="translate(29 76)" font-size="10" font-weight="600" font-family="Inter" x="0, 6.49" y="9.69">
												SP
										</text></g><clipPath id="em3d-connector-setups_cl_21"><rect x="52" y="47" width="38" height="15" /></clipPath><g clip-path="url(#em3d-connector-setups_cl_21)"><text fill="#010101" transform="translate(52 47)" font-size="12" font-family="Inter" x="0, 7.62, 14.39, 17.23, 24, 30.7" y="11.63">
												Palace
										</text></g><clipPath id="em3d-connector-setups_cl_22"><rect x="52" y="63" width="115" height="13" /></clipPath><g clip-path="url(#em3d-connector-setups_cl_22)"><text fill="#010101" fill-opacity="0.6" transform="translate(52 63)" font-size="10" font-family="Inter" x="0, 6.35, 11.99, 14.36, 20, 25.58, 31.41, 34.22, 36.97, 39.79, 45.84, 50.84, 55.48, 61.65, 64.46, 71.89, 79.29, 84.7, 87.5, 90.31, 96.39, 99.2, 105.3, 108.84" y="9.69">
												Palace · 2–18 GHz, 5 pts
										</text></g><clipPath id="em3d-connector-setups_cl_23"><rect x="52" y="79" width="404" height="38" /></clipPath><g clip-path="url(#em3d-connector-setups_cl_23)"><clipPath id="em3d-connector-setups_cl_24"><rect x="52" y="81" width="12" height="12" /></clipPath><g clip-path="url(#em3d-connector-setups_cl_24)"><use xlink:href="#em3d-connector-setups_d2" fill="#010101" fill-opacity="0.6" transform="matrix(0.5 0 0 0.5 52 81)" fill-rule="evenodd" /></g><clipPath id="em3d-connector-setups_cl_25"><rect x="68" y="80" width="388" height="37" /></clipPath><g clip-path="url(#em3d-connector-setups_cl_25)"><text fill="#010101" fill-opacity="0.8" transform="translate(68 80)" font-size="10" font-family="Inter" x="0, 6.35, 11.99, 14.36, 20, 25.58, 31.41, 34.16, 36.97, 43.39, 49.3, 55.13, 57.94, 62.59, 68.84, 75.09, 77.9, 84.12, 92.81, 95.63, 99.23, 101.61, 103.98, 106.35, 112.17, 115.81, 118.62, 124.59, 130.44, 133.25, 135.47, 141.56, 143.93, 149.79, 152, 154.82, 158.44, 162.05, 164.42, 166.79, 169.16, 174.99, 178.62, 182.24, 187.47, 189.84, 196.05, 201.88, 205.14, 208.72, 214.69, 220.67, 224.29, 227.91, 230.72, 236.82, 242.63, 246.16, 251.39, 254.2, 260.03, 262.4, 268.22, 276.92, 282.74, 288.59, 292.13, 297.36, 300.17, 306.14, 309.74, 312.56, 318.2, 324.4, 330.37, 336.18, 339.82, 342.63, 348.71, 354.76, 357.24, 363.61, 369.84, 372.66, 378.88, 387.57" y="9.69">
													Palace: The 100 µm fillet on 'pin' (fillet(side|top)) puts elements of about 52.36 µm 
											</text><text fill="#010101" fill-opacity="0.8" transform="translate(68 92.1)" font-size="10" font-family="Inter" x="0, 5.97, 11.82, 14.63, 17, 20.64, 23.45, 33.45, 36.26, 41.9, 44.72, 50.81, 56.62, 62.26, 66.32, 69.9, 75.72, 79.45, 82.26, 88.22, 91.83, 94.64, 98.39, 104.3, 110.13, 112.94, 118.17, 126.86, 132.5, 134.87, 137.24, 143.07, 148.3, 151.93, 154.74, 160.57, 162.94, 168.17, 173.99, 182.12, 188.03, 193.85, 197.4, 203.22, 206.04, 216.04, 218.85, 224.49, 230.34, 236.55, 239.36, 247.49, 249.86, 252.23, 254.6, 257.41, 263.62, 269.59, 278.28, 280.65, 286.51, 292.14, 295.72, 301.55, 304.36, 308.11, 314.02, 319.84, 322.66, 331.35, 337.17, 342.4, 348.31, 351.07" y="9.69">
													on it — a quarter of the smallest elsewhere — and will dominate the mesh. 
											</text><text fill="#010101" fill-opacity="0.8" transform="translate(68 104.21)" font-size="10" font-family="Inter" x="0, 7.19, 9.56, 14.79, 20.43, 26.63, 29.01, 31.38, 37.23, 43.32, 46.14, 48.51, 52.14, 54.96, 58.58, 60.95, 64.49, 69.72, 72.53, 78.51, 84.36, 90, 96.21, 98.58, 104.4, 110.61, 113.42, 119.63, 125.37, 130.77, 134.39, 137.2, 142.43, 148.34, 154.12, 162.24, 167.47, 170.28, 178.41, 184.32, 190.14, 193.89, 199.8, 205.63, 209.35, 212.16, 214.53, 218.17, 220.98, 229.67, 235.31, 238.95, 242.53, 248.35, 252.07, 257.3" y="9.69">
													Disabling it (its Enabled box) shows whether it matters.
											</text></g></g></g><clipPath id="em3d-connector-setups_cl_26"><rect y="120" width="460" height="102" /></clipPath><g clip-path="url(#em3d-connector-setups_cl_26)"><rect fill="#0078D7" fill-opacity="0.4" transform="translate(0 120)" width="460" height="102" /><clipPath id="em3d-connector-setups_cl_27"><rect x="4" y="163" width="15" height="15" /></clipPath><g clip-path="url(#em3d-connector-setups_cl_27)"><path fill="#010101" fill-opacity="0.6" transform="matrix(0.625 0 0 0.625 4 163)" d="M12 20Q11.8 20 11.61 19.99Q11.41 19.98 11.22 19.96Q11.02 19.94 10.83 19.91Q10.63 19.88 10.44 19.85Q10.25 19.81 10.06 19.76Q9.87 19.71 9.68 19.66Q9.49 19.6 9.3 19.53Q9.12 19.47 8.94 19.39Q8.76 19.32 8.58 19.23Q8.4 19.15 8.23 19.06Q8.06 18.96 7.89 18.86Q7.72 18.76 7.56 18.65Q7.39 18.54 7.23 18.43Q7.08 18.31 6.92 18.18Q6.77 18.06 6.63 17.93Q6.48 17.8 6.34 17.66Q6.2 17.52 6.07 17.37Q5.94 17.23 5.82 17.08Q5.69 16.92 5.57 16.77Q5.46 16.61 5.35 16.44Q5.24 16.28 5.14 16.11Q5.04 15.94 4.94 15.77Q4.85 15.6 4.77 15.42Q4.68 15.24 4.61 15.06Q4.53 14.88 4.47 14.7Q4.4 14.51 4.34 14.32Q4.29 14.13 4.24 13.94Q4.19 13.75 4.15 13.56Q4.12 13.37 4.09 13.17Q4.06 12.98 4.04 12.78Q4.02 12.59 4.01 12.39Q4 12.2 4 12Q4 11.8 4.01 11.61Q4.02 11.41 4.04 11.22Q4.06 11.02 4.09 10.83Q4.12 10.63 4.15 10.44Q4.19 10.25 4.24 10.06Q4.29 9.87 4.34 9.68Q4.4 9.49 4.47 9.3Q4.53 9.12 4.61 8.94Q4.68 8.76 4.77 8.58Q4.85 8.4 4.94 8.23Q5.04 8.06 5.14 7.89Q5.24 7.72 5.35 7.56Q5.46 7.39 5.57 7.23Q5.69 7.08 5.82 6.92Q5.94 6.77 6.07 6.63Q6.2 6.48 6.34 6.34Q6.48 6.2 6.63 6.07Q6.77 5.94 6.92 5.82Q7.08 5.69 7.23 5.57Q7.39 5.46 7.56 5.35Q7.72 5.24 7.89 5.14Q8.06 5.04 8.23 4.94Q8.4 4.85 8.58 4.77Q8.76 4.68 8.94 4.61Q9.12 4.53 9.3 4.47Q9.49 4.4 9.68 4.34Q9.87 4.29 10.06 4.24Q10.25 4.19 10.44 4.15Q10.63 4.12 10.83 4.09Q11.02 4.06 11.22 4.04Q11.41 4.02 11.61 4.01Q11.8 4 12 4Q12.2 4 12.39 4.01Q12.59 4.02 12.78 4.04Q12.98 4.06 13.17 4.09Q13.37 4.12 13.56 4.15Q13.75 4.19 13.94 4.24Q14.13 4.29 14.32 4.34Q14.51 4.4 14.7 4.47Q14.88 4.53 15.06 4.61Q15.24 4.68 15.42 4.77Q15.6 4.85 15.77 4.94Q15.94 5.04 16.11 5.14Q16.28 5.24 16.44 5.35Q16.61 5.46 16.77 5.57Q16.92 5.69 17.08 5.82Q17.23 5.94 17.37 6.07Q17.52 6.2 17.66 6.34Q17.8 6.48 17.93 6.63Q18.06 6.77 18.18 6.92Q18.31 7.08 18.43 7.23Q18.54 7.39 18.65 7.56Q18.76 7.72 18.86 7.89Q18.96 8.06 19.06 8.23Q19.15 8.4 19.23 8.58Q19.32 8.76 19.39 8.94Q19.47 9.12 19.53 9.3Q19.6 9.49 19.66 9.68Q19.71 9.87 19.76 10.06Q19.81 10.25 19.85 10.44Q19.88 10.63 19.91 10.83Q19.94 11.02 19.96 11.22Q19.98 11.41 19.99 11.61Q20 11.8 20 12Q20 12.2 19.99 12.39Q19.98 12.59 19.96 12.78Q19.94 12.98 19.91 13.17Q19.88 13.37 19.85 13.56Q19.81 13.75 19.76 13.94Q19.71 14.13 19.66 14.32Q19.6 14.51 19.53 14.7Q19.47 14.88 19.39 15.06Q19.32 15.24 19.23 15.42Q19.15 15.6 19.06 15.77Q18.96 15.94 18.86 16.11Q18.76 16.28 18.65 16.44Q18.54 16.61 18.43 16.77Q18.31 16.92 18.18 17.08Q18.06 17.23 17.93 17.37Q17.8 17.52 17.66 17.66Q17.52 17.8 17.37 17.93Q17.23 18.06 17.08 18.18Q16.92 18.31 16.77 18.43Q16.61 18.54 16.44 18.65Q16.28 18.76 16.11 18.86Q15.94 18.96 15.77 19.06Q15.6 19.15 15.42 19.23Q15.24 19.32 15.06 19.39Q14.88 19.47 14.7 19.53Q14.51 19.6 14.32 19.66Q14.13 19.71 13.94 19.76Q13.75 19.81 13.56 19.85Q13.37 19.88 13.17 19.91Q12.98 19.94 12.78 19.96Q12.59 19.98 12.39 19.99Q12.2 20 12 20M12 2Q11.75 2 11.51 2.01Q11.26 2.02 11.02 2.05Q10.78 2.07 10.53 2.11Q10.29 2.14 10.05 2.19Q9.81 2.24 9.57 2.3Q9.33 2.36 9.1 2.43Q8.86 2.5 8.63 2.58Q8.4 2.67 8.17 2.76Q7.95 2.86 7.72 2.96Q7.5 3.07 7.29 3.18Q7.07 3.3 6.86 3.42Q6.65 3.55 6.44 3.69Q6.24 3.82 6.04 3.97Q5.85 4.11 5.66 4.27Q5.47 4.43 5.28 4.59Q5.1 4.76 4.93 4.93Q4.76 5.1 4.59 5.28Q4.43 5.47 4.27 5.66Q4.11 5.85 3.97 6.04Q3.82 6.24 3.69 6.44Q3.55 6.65 3.42 6.86Q3.3 7.07 3.18 7.29Q3.07 7.5 2.96 7.72Q2.86 7.95 2.76 8.17Q2.67 8.4 2.58 8.63Q2.5 8.86 2.43 9.1Q2.36 9.33 2.3 9.57Q2.24 9.81 2.19 10.05Q2.14 10.29 2.11 10.53Q2.07 10.78 2.05 11.02Q2.02 11.26 2.01 11.51Q2 11.75 2 12Q2 12.25 2.01 12.49Q2.02 12.74 2.05 12.98Q2.07 13.22 2.11 13.47Q2.14 13.71 2.19 13.95Q2.24 14.19 2.3 14.43Q2.36 14.67 2.43 14.9Q2.5 15.14 2.58 15.37Q2.67 15.6 2.76 15.83Q2.86 16.05 2.96 16.28Q3.07 16.5 3.18 16.71Q3.3 16.93 3.42 17.14Q3.55 17.35 3.69 17.56Q3.82 17.76 3.97 17.96Q4.11 18.15 4.27 18.34Q4.43 18.53 4.59 18.72Q4.76 18.9 4.93 19.07Q5.1 19.24 5.28 19.41Q5.47 19.57 5.66 19.73Q5.85 19.89 6.04 20.03Q6.24 20.18 6.44 20.31Q6.65 20.45 6.86 20.58Q7.07 20.7 7.29 20.82Q7.5 20.93 7.72 21.04Q7.95 21.14 8.17 21.24Q8.4 21.33 8.63 21.42Q8.86 21.5 9.1 21.57Q9.33 21.64 9.57 21.7Q9.81 21.76 10.05 21.81Q10.29 21.86 10.53 21.89Q10.78 21.93 11.02 21.95Q11.26 21.98 11.51 21.99Q11.75 22 12 22Q12.25 22 12.49 21.99Q12.74 21.98 12.98 21.95Q13.22 21.93 13.47 21.89Q13.71 21.86 13.95 21.81Q14.19 21.76 14.43 21.7Q14.67 21.64 14.9 21.57Q15.14 21.5 15.37 21.42Q15.6 21.33 15.83 21.24Q16.05 21.14 16.28 21.04Q16.5 20.93 16.71 20.82Q16.93 20.7 17.14 20.58Q17.35 20.45 17.56 20.31Q17.76 20.18 17.96 20.03Q18.15 19.89 18.34 19.73Q18.53 19.57 18.72 19.41Q18.9 19.24 19.07 19.07Q19.24 18.9 19.41 18.72Q19.57 18.53 19.73 18.34Q19.89 18.15 20.03 17.96Q20.18 17.76 20.31 17.56Q20.45 17.35 20.58 17.14Q20.7 16.93 20.82 16.71Q20.93 16.5 21.04 16.28Q21.14 16.05 21.24 15.83Q21.33 15.6 21.42 15.37Q21.5 15.14 21.57 14.9Q21.64 14.67 21.7 14.43Q21.76 14.19 21.81 13.95Q21.86 13.71 21.89 13.47Q21.93 13.22 21.95 12.98Q21.98 12.74 21.99 12.49Q22 12.25 22 12Q22 11.75 21.99 11.51Q21.98 11.26 21.95 11.02Q21.93 10.78 21.89 10.53Q21.86 10.29 21.81 10.05Q21.76 9.81 21.7 9.57Q21.64 9.33 21.57 9.1Q21.5 8.86 21.42 8.63Q21.33 8.4 21.24 8.17Q21.14 7.95 21.04 7.72Q20.93 7.5 20.82 7.29Q20.7 7.07 20.58 6.86Q20.45 6.65 20.31 6.44Q20.18 6.24 20.03 6.04Q19.89 5.85 19.73 5.66Q19.57 5.47 19.41 5.28Q19.24 5.1 19.07 4.93Q18.9 4.76 18.72 4.59Q18.53 4.43 18.34 4.27Q18.15 4.11 17.96 3.97Q17.76 3.82 17.56 3.69Q17.35 3.55 17.14 3.42Q16.93 3.3 16.71 3.18Q16.5 3.07 16.28 2.96Q16.05 2.86 15.83 2.76Q15.6 2.67 15.37 2.58Q15.14 2.5 14.9 2.43Q14.67 2.36 14.43 2.3Q14.19 2.24 13.95 2.19Q13.71 2.14 13.47 2.11Q13.22 2.07 12.98 2.05Q12.74 2.02 12.49 2.01Q12.25 2 12 2Z" fill-rule="evenodd" /></g><use xlink:href="#em3d-connector-setups_d1" fill="#010101" fill-opacity="0.09804" transform="translate(25 163)" /><clipPath id="em3d-connector-setups_cl_28"><rect x="29" y="164" width="13" height="13" /></clipPath><g clip-path="url(#em3d-connector-setups_cl_28)"><text fill="#010101" fill-opacity="0.8" transform="translate(29 164)" font-size="10" font-weight="600" font-family="Inter" x="0, 6.49" y="9.69">
												SP
										</text></g><clipPath id="em3d-connector-setups_cl_29"><rect x="52" y="123" width="54" height="15" /></clipPath><g clip-path="url(#em3d-connector-setups_cl_29)"><text fill="#010101" transform="translate(52 123)" font-size="12" font-family="Inter" x="0, 7.16, 14.47, 21.46, 28.48, 35.66, 46.33" y="11.63">
												openEMS
										</text></g><clipPath id="em3d-connector-setups_cl_30"><rect x="52" y="139" width="128" height="13" /></clipPath><g clip-path="url(#em3d-connector-setups_cl_30)"><text fill="#010101" fill-opacity="0.6" transform="translate(52 139)" font-size="10" font-family="Inter" x="0, 5.97, 12.06, 17.88, 23.74, 29.72, 38.61, 44.99, 47.8, 50.55, 53.37, 59.42, 64.42, 69.06, 75.23, 78.04, 85.47, 92.87, 98.28, 101.08, 103.89, 109.97, 112.78, 118.88, 122.41" y="9.69">
												openEMS · 2–18 GHz, 5 pts
										</text></g><clipPath id="em3d-connector-setups_cl_31"><rect x="52" y="155" width="404" height="64" /></clipPath><g clip-path="url(#em3d-connector-setups_cl_31)"><clipPath id="em3d-connector-setups_cl_32"><rect x="52" y="157" width="12" height="12" /></clipPath><g clip-path="url(#em3d-connector-setups_cl_32)"><use xlink:href="#em3d-connector-setups_d2" fill="#010101" fill-opacity="0.6" transform="matrix(0.5 0 0 0.5 52 157)" fill-rule="evenodd" /></g><clipPath id="em3d-connector-setups_cl_33"><rect x="68" y="156" width="378" height="25" /></clipPath><g clip-path="url(#em3d-connector-setups_cl_33)"><text fill="#010101" fill-opacity="0.8" transform="translate(68 156)" font-size="10" font-family="Inter" x="0, 5.97, 12.06, 17.88, 23.74, 29.72, 38.61, 44.99, 47.74, 50.55, 56.52, 62.61, 68.44, 74.29, 80.27, 89.16, 95.54, 98.35, 103.58, 107.22, 112.86, 115.23, 118.78, 124.36, 130, 135.23, 141.05, 146.28, 149.09, 152.84, 158.75, 164.57, 167.39, 172.97, 178.78, 182.67, 188.04, 193.86, 200.07, 202.88, 206.34, 211.97, 217.56, 223.38, 228.61, 231.42, 237.39, 240.99, 243.81, 246.02, 251.93, 257.9, 263.71, 268.93, 271.31, 277.16, 283.25, 285.47, 288.28, 293.92, 297.56, 300.37, 306.96, 309.77, 316.19, 319.01, 324.59, 330.41, 332.78, 335.16, 340.38, 343.2, 348.84, 354.42, 357.97, 363.93, 369.16, 374.39" y="9.69">
													openEMS: openEMS staircases the curved faces of 'housing' at ≥ 4 cells across 
											</text><text fill="#010101" fill-opacity="0.8" transform="translate(68 168.1)" font-size="10" font-family="Inter" x="0, 3.75, 9.66, 15.48, 17.86, 21.58, 24.39, 29.62, 38.31, 43.95, 46.32, 48.69, 54.52, 59.74, 63.38, 66.19, 69.91, 75.55, 81.76, 84.13, 89.94, 95.17, 97.98, 101.61, 107.84, 113.39, 119.64, 122.46, 128.68, 137.37, 140.99, 143.79, 146.61, 150.16, 155.98, 159.59, 161.96, 167.81, 170.18, 176.04, 182.13, 184.94, 188.69, 194.6, 200.43, 203.24, 209.33, 213.05, 215.43, 221.63, 224.45, 230.03, 235.99, 241.65, 247.02, 252.84, 256.39, 262.49, 268.31, 273.54, 276.35, 280.1, 286.01, 291.83, 300.53" y="9.69">
													their smallest radius (670 µm); refining the grid converges them.
											</text></g><clipPath id="em3d-connector-setups_cl_34"><rect x="52" y="183" width="12" height="12" /></clipPath><g clip-path="url(#em3d-connector-setups_cl_34)"><path fill="#DAA520" transform="matrix(0.5 0 0 0.5 52 183)" d="M12 2L1 21L23 21M12 6L19.53 19L4.47 19M11 10L11 14L13 14L13 10M11 16L11 18L13 18L13 16" fill-rule="evenodd" /></g><clipPath id="em3d-connector-setups_cl_35"><rect x="68" y="182" width="385" height="37" /></clipPath><g clip-path="url(#em3d-connector-setups_cl_35)"><text fill="#010101" fill-opacity="0.8" transform="translate(68 182)" font-size="10" font-family="Inter" x="0, 5.97, 12.06, 17.88, 23.74, 29.72, 38.61, 44.99, 47.74, 50.55, 56.52, 62.61, 68.44, 74.29, 80.27, 89.16, 95.54, 98.35, 106.48, 108.85, 111.22, 113.59, 116.41, 122.26, 128.22, 131.86, 134.67, 138.22, 144.05, 150.14, 153.69, 159.52, 164.74, 170.57, 176.42, 180.06, 182.87, 186.62, 192.53, 198.35, 201.16, 205.81, 212.06, 218.31, 221.12, 227.34, 236.04, 238.85, 242.46, 244.83, 247.2, 249.57, 255.4, 259.03, 261.85, 267.81, 273.66, 276.48, 278.69, 284.79, 287.16, 293.01, 295.23, 298.04, 301.66, 305.27, 307.64, 310.01, 312.39, 318.21, 321.85, 325.47, 330.7, 333.07, 339.28, 345.1, 348.37, 351.95, 357.91, 363.89, 367.51, 371.14, 373.89" y="9.69">
													openEMS: openEMS will not represent the 100 µm fillet on 'pin' (fillet(side|top)): 
											</text><text fill="#010101" fill-opacity="0.8" transform="translate(68 194.1)" font-size="10" font-family="Inter" x="0, 3.75, 9.66, 15.48, 18.3, 24.39, 28.11, 30.48, 36.69, 39.5, 45.09, 50.91, 53.28, 55.65, 58.47, 62.22, 68.13, 73.95, 77.5, 83.32, 86.14, 88.51, 93.74, 96.55, 101.19, 105.84, 111.83, 114.33, 120.57, 126.73, 132.9, 135.71, 141.93, 150.63, 153.42, 156.24, 161.46, 167.43, 170.24, 173.99, 179.9, 185.72, 188.54, 194.36, 200.57, 206.66, 212.49, 215.3, 217.67, 222.9, 225.71, 230.94, 236.9, 239.28, 244.64, 250.47, 256.68, 259.49, 265.13, 270.36, 273.17, 278.39, 284.3, 289.94, 293.66, 299.76, 302.51, 305.33, 307.97, 311.61, 314.42, 316.79, 322.02, 324.83, 328.58, 334.49, 340.31, 343.13, 351.07, 357.03, 360.75, 365.98, 369.62, 372.43, 378.39, 382" y="9.69">
													the grid cell there is 110.688 µm, so the edge is solved as sharp. It is the worst of 
											</text><text fill="#010101" fill-opacity="0.8" transform="translate(68 206.21)" font-size="10" font-family="Inter" x="0, 6.05, 8.86, 12.41, 18.38, 24.19, 30.04, 36.25, 42.07, 48.28, 51.09, 54.47, 60.3, 65.94, 69.57, 75.38, 78.93, 84.76, 89.99, 92.8, 98.76, 104.62, 107.43, 109.64, 115.74, 118.11, 123.96, 125.36" y="9.69">
													2 rounded features on 'pin'.
											</text></g></g></g></g></svg>
