<!-- GENERATED FILE - do not edit. Regenerate every figure and page with:
     dotnet run ––project tools/DocGen –– ––out docs/user
     (the flags above are ordinary double hyphens; XML comments cannot contain them.)
     Source: src/Ui/Diagnostics/UiArtworkGenerator.cs + tools/DocGen. -->
<svg xmlns="http://www.w3.org/2000/svg" xmlns:xlink="http://www.w3.org/1999/xlink" width="960" height="540" viewBox="0 0 960 540"><defs><path id="em3d-connector-section-dark_d0" d="M123.18 251.28L123.18 251.28L123.18 251.28L123.18 251.28L123.18 251.28L123.18 251.28L123.18 251.28L123.18 251.28L123.18 251.28L123.18 219.5L123.18 219.5L336.64 219.5L336.64 251.28L336.64 251.28L336.64 251.28L336.64 251.28L336.64 251.28L336.64 251.28L336.64 251.28L336.64 251.28L336.64 251.28L336.64 251.28L336.64 251.28L336.64 251.28L336.64 251.28L336.64 251.28L336.64 251.28L336.64 251.28L336.64 283.06L123.18 283.06L123.18 283.06L123.18 251.28L123.18 251.28L123.18 251.28L123.18 251.28L123.18 251.28L123.18 251.28L123.18 251.28Z" /><path id="em3d-connector-section-dark_d1" d="M336.64 285.7L577.62 285.7L577.62 261.6L336.64 261.6L336.64 285.7Z" /><path id="em3d-connector-section-dark_d2" d="M289.2 356.85L289.2 332.76L289.2 322.44L194.33 322.44L99.46 322.44L99.46 251.28L99.46 180.13L194.33 180.13L289.2 180.13L289.2 169.1L289.2 143.39L312.92 143.39L336.64 143.39L336.64 219.5L336.64 219.5L336.64 219.5L123.18 219.5L123.18 219.5L123.18 219.5L123.18 270.39L123.18 278.57L123.18 281.15L123.18 282.42L123.18 282.85L229.91 282.85L336.64 282.85L336.64 284.46L336.64 356.85L312.92 356.85L289.2 356.85Z" /><path id="em3d-connector-section-dark_d3" d="M403.05 241.79L137.41 241.79L137.41 241.79L137.41 241.79L137.41 241.79L137.41 244.63L137.41 245.36L137.41 251.28L137.41 257.2L137.41 259.3L137.41 260.49L137.41 260.77L137.41 260.77L403.05 260.77L404.11 260.65L404.11 260.65L404.11 260.65L405.11 260.3L405.11 260.3L406.01 259.73L406.01 259.73L406.76 258.98L406.76 258.98L407.33 258.08L407.33 258.08L407.68 257.08L407.8 256.02L407.8 256.02L407.8 255.89L407.8 255.29L407.8 254.24L407.8 251.28L407.8 248.32L407.8 247.96L407.8 246.54L407.68 245.48L407.68 245.48L407.68 245.48L407.33 244.48L407.33 244.48L406.76 243.58L406.76 243.58L406.01 242.83L405.11 242.26L405.11 242.26L405.11 242.26L404.11 241.91L403.05 241.79L403.05 241.79Z" /><path id="em3d-connector-section-dark_d4" d="M336.64 287.36L577.62 287.36L577.62 285.7L336.64 285.7L336.64 287.36Z" /><path id="em3d-connector-section-dark_d5" d="M341.46 261.6L577.62 261.6L577.62 259.94L341.46 259.94L341.46 261.6Z" /><path id="em3d-connector-section-dark_d6" d="M123.18 256.02L137.41 256.02L137.41 246.54L123.18 246.54L123.18 256.02Z" /><path id="em3d-connector-section-dark_d7" d="M574.62 261.6L580.62 261.6L580.62 285.7L574.62 285.7L574.62 261.6Z" /></defs><rect fill="#010101" width="960" height="540" /><rect fill="#15222D" width="960" height="540" /><clipPath id="em3d-connector-section-dark_cl_0"><rect x="99.46" y="71.66" width="549.88" height="356.91" /></clipPath><g clip-path="url(#em3d-connector-section-dark_cl_0)"><use xlink:href="#em3d-connector-section-dark_d0" fill="#8595AF" fill-opacity="0.2353" fill-rule="evenodd" /><use xlink:href="#em3d-connector-section-dark_d0" fill="none" stroke="#4F5969" stroke-width="1" stroke-miterlimit="4" fill-rule="evenodd" /><use xlink:href="#em3d-connector-section-dark_d1" fill="#9585AF" fill-opacity="0.2353" fill-rule="evenodd" /><use xlink:href="#em3d-connector-section-dark_d1" fill="none" stroke="#594F69" stroke-width="1" stroke-miterlimit="4" fill-rule="evenodd" /><use xlink:href="#em3d-connector-section-dark_d2" fill="#C9A93B" fill-rule="evenodd" /><use xlink:href="#em3d-connector-section-dark_d2" fill="none" stroke="#786523" stroke-width="1" stroke-miterlimit="4" fill-rule="evenodd" /><use xlink:href="#em3d-connector-section-dark_d3" fill="#C9A93B" fill-rule="evenodd" /><use xlink:href="#em3d-connector-section-dark_d3" fill="none" stroke="#786523" stroke-width="1" stroke-miterlimit="4" fill-rule="evenodd" /><use xlink:href="#em3d-connector-section-dark_d4" fill="#B87333" fill-rule="evenodd" /><use xlink:href="#em3d-connector-section-dark_d4" fill="none" stroke="#6E451E" stroke-width="1" stroke-miterlimit="4" fill-rule="evenodd" /><use xlink:href="#em3d-connector-section-dark_d5" fill="#CC783C" fill-rule="evenodd" /><use xlink:href="#em3d-connector-section-dark_d5" fill="none" stroke="#7A4824" stroke-width="1" stroke-miterlimit="4" fill-rule="evenodd" /></g><path fill="#D4D4D8" fill-opacity="0.5647" d="M99.46 428.07L105.46 428.07L105.46 429.07L99.46 429.07M109.46 428.07L115.46 428.07L115.46 429.07L109.46 429.07M119.46 428.07L125.46 428.07L125.46 429.07L119.46 429.07M129.46 428.07L135.46 428.07L135.46 429.07L129.46 429.07M139.46 428.07L145.46 428.07L145.46 429.07L139.46 429.07M149.46 428.07L155.46 428.07L155.46 429.07L149.46 429.07M159.46 428.07L165.46 428.07L165.46 429.07L159.46 429.07M169.46 428.07L175.46 428.07L175.46 429.07L169.46 429.07M179.46 428.07L185.46 428.07L185.46 429.07L179.46 429.07M189.46 428.07L195.46 428.07L195.46 429.07L189.46 429.07M199.46 428.07L205.46 428.07L205.46 429.07L199.46 429.07M209.46 428.07L215.46 428.07L215.46 429.07L209.46 429.07M219.46 428.07L225.46 428.07L225.46 429.07L219.46 429.07M229.46 428.07L235.46 428.07L235.46 429.07L229.46 429.07M239.46 428.07L245.46 428.07L245.46 429.07L239.46 429.07M249.46 428.07L255.46 428.07L255.46 429.07L249.46 429.07M259.46 428.07L265.46 428.07L265.46 429.07L259.46 429.07M269.46 428.07L275.46 428.07L275.46 429.07L269.46 429.07M279.46 428.07L285.46 428.07L285.46 429.07L279.46 429.07M289.46 428.07L295.46 428.07L295.46 429.07L289.46 429.07M299.46 428.07L305.46 428.07L305.46 429.07L299.46 429.07M309.46 428.07L315.46 428.07L315.46 429.07L309.46 429.07M319.46 428.07L325.46 428.07L325.46 429.07L319.46 429.07M329.46 428.07L335.46 428.07L335.46 429.07L329.46 429.07M339.46 428.07L345.46 428.07L345.46 429.07L339.46 429.07M349.46 428.07L355.46 428.07L355.46 429.07L349.46 429.07M359.46 428.07L365.46 428.07L365.46 429.07L359.46 429.07M369.46 428.07L375.46 428.07L375.46 429.07L369.46 429.07M379.46 428.07L385.46 428.07L385.46 429.07L379.46 429.07M389.46 428.07L395.46 428.07L395.46 429.07L389.46 429.07M399.46 428.07L405.46 428.07L405.46 429.07L399.46 429.07M409.46 428.07L415.46 428.07L415.46 429.07L409.46 429.07M419.46 428.07L425.46 428.07L425.46 429.07L419.46 429.07M429.46 428.07L435.46 428.07L435.46 429.07L429.46 429.07M439.46 428.07L445.46 428.07L445.46 429.07L439.46 429.07M449.46 428.07L455.46 428.07L455.46 429.07L449.46 429.07M459.46 428.07L465.46 428.07L465.46 429.07L459.46 429.07M469.46 428.07L475.46 428.07L475.46 429.07L469.46 429.07M479.46 428.07L485.46 428.07L485.46 429.07L479.46 429.07M489.46 428.07L495.46 428.07L495.46 429.07L489.46 429.07M499.46 428.07L505.46 428.07L505.46 429.07L499.46 429.07M509.46 428.07L515.46 428.07L515.46 429.07L509.46 429.07M519.46 428.07L525.46 428.07L525.46 429.07L519.46 429.07M529.46 428.07L535.46 428.07L535.46 429.07L529.46 429.07M539.46 428.07L545.46 428.07L545.46 429.07L539.46 429.07M549.46 428.07L555.46 428.07L555.46 429.07L549.46 429.07M559.46 428.07L565.46 428.07L565.46 429.07L559.46 429.07M569.46 428.07L575.46 428.07L575.46 429.07L569.46 429.07M579.46 428.07L585.46 428.07L585.46 429.07L579.46 429.07M589.46 428.07L595.46 428.07L595.46 429.07L589.46 429.07M599.46 428.07L605.46 428.07L605.46 429.07L599.46 429.07M609.46 428.07L615.46 428.07L615.46 429.07L609.46 429.07M619.46 428.07L625.46 428.07L625.46 429.07L619.46 429.07M629.46 428.07L635.46 428.07L635.46 429.07L629.46 429.07M639.46 428.07L645.46 428.07L645.46 429.07L639.46 429.07" /><path fill="#D4D4D8" fill-opacity="0.5647" d="M648.84 428.57L648.84 422.57L649.84 422.57L649.84 428.57M648.84 418.57L648.84 412.57L649.84 412.57L649.84 418.57M648.84 408.57L648.84 402.57L649.84 402.57L649.84 408.57M648.84 398.57L648.84 392.57L649.84 392.57L649.84 398.57M648.84 388.57L648.84 382.57L649.84 382.57L649.84 388.57M648.84 378.57L648.84 372.57L649.84 372.57L649.84 378.57M648.84 368.57L648.84 362.57L649.84 362.57L649.84 368.57M648.84 358.57L648.84 352.57L649.84 352.57L649.84 358.57M648.84 348.57L648.84 342.57L649.84 342.57L649.84 348.57M648.84 338.57L648.84 332.57L649.84 332.57L649.84 338.57M648.84 328.57L648.84 322.57L649.84 322.57L649.84 328.57M648.84 318.57L648.84 312.57L649.84 312.57L649.84 318.57M648.84 308.57L648.84 302.57L649.84 302.57L649.84 308.57M648.84 298.57L648.84 292.57L649.84 292.57L649.84 298.57M648.84 288.57L648.84 282.57L649.84 282.57L649.84 288.57M648.84 278.57L648.84 272.57L649.84 272.57L649.84 278.57M648.84 268.57L648.84 262.57L649.84 262.57L649.84 268.57M648.84 258.57L648.84 252.57L649.84 252.57L649.84 258.57M648.84 248.57L648.84 242.57L649.84 242.57L649.84 248.57M648.84 238.57L648.84 232.57L649.84 232.57L649.84 238.57M648.84 228.57L648.84 222.57L649.84 222.57L649.84 228.57M648.84 218.57L648.84 212.57L649.84 212.57L649.84 218.57M648.84 208.57L648.84 202.57L649.84 202.57L649.84 208.57M648.84 198.57L648.84 192.57L649.84 192.57L649.84 198.57M648.84 188.57L648.84 182.57L649.84 182.57L649.84 188.57M648.84 178.57L648.84 172.57L649.84 172.57L649.84 178.57M648.84 168.57L648.84 162.57L649.84 162.57L649.84 168.57M648.84 158.57L648.84 152.57L649.84 152.57L649.84 158.57M648.84 148.57L648.84 142.57L649.84 142.57L649.84 148.57M648.84 138.57L648.84 132.57L649.84 132.57L649.84 138.57M648.84 128.57L648.84 122.57L649.84 122.57L649.84 128.57M648.84 118.57L648.84 112.57L649.84 112.57L649.84 118.57M648.84 108.57L648.84 102.57L649.84 102.57L649.84 108.57M648.84 98.57L648.84 92.57L649.84 92.57L649.84 98.57M648.84 88.57L648.84 82.57L649.84 82.57L649.84 88.57M648.84 78.57L648.84 72.57L649.84 72.57L649.84 78.57" /><path fill="#D4D4D8" fill-opacity="0.5647" d="M649.34 72.16L643.34 72.16L643.34 71.16L649.34 71.16M639.34 72.16L633.34 72.16L633.34 71.16L639.34 71.16M629.34 72.16L623.34 72.16L623.34 71.16L629.34 71.16M619.34 72.16L613.34 72.16L613.34 71.16L619.34 71.16M609.34 72.16L603.34 72.16L603.34 71.16L609.34 71.16M599.34 72.16L593.34 72.16L593.34 71.16L599.34 71.16M589.34 72.16L583.34 72.16L583.34 71.16L589.34 71.16M579.34 72.16L573.34 72.16L573.34 71.16L579.34 71.16M569.34 72.16L563.34 72.16L563.34 71.16L569.34 71.16M559.34 72.16L553.34 72.16L553.34 71.16L559.34 71.16M549.34 72.16L543.34 72.16L543.34 71.16L549.34 71.16M539.34 72.16L533.34 72.16L533.34 71.16L539.34 71.16M529.34 72.16L523.34 72.16L523.34 71.16L529.34 71.16M519.34 72.16L513.34 72.16L513.34 71.16L519.34 71.16M509.34 72.16L503.34 72.16L503.34 71.16L509.34 71.16M499.34 72.16L493.34 72.16L493.34 71.16L499.34 71.16M489.34 72.16L483.34 72.16L483.34 71.16L489.34 71.16M479.34 72.16L473.34 72.16L473.34 71.16L479.34 71.16M469.34 72.16L463.34 72.16L463.34 71.16L469.34 71.16M459.34 72.16L453.34 72.16L453.34 71.16L459.34 71.16M449.34 72.16L443.34 72.16L443.34 71.16L449.34 71.16M439.34 72.16L433.34 72.16L433.34 71.16L439.34 71.16M429.34 72.16L423.34 72.16L423.34 71.16L429.34 71.16M419.34 72.16L413.34 72.16L413.34 71.16L419.34 71.16M409.34 72.16L403.34 72.16L403.34 71.16L409.34 71.16M399.34 72.16L393.34 72.16L393.34 71.16L399.34 71.16M389.34 72.16L383.34 72.16L383.34 71.16L389.34 71.16M379.34 72.16L373.34 72.16L373.34 71.16L379.34 71.16M369.34 72.16L363.34 72.16L363.34 71.16L369.34 71.16M359.34 72.16L353.34 72.16L353.34 71.16L359.34 71.16M349.34 72.16L343.34 72.16L343.34 71.16L349.34 71.16M339.34 72.16L333.34 72.16L333.34 71.16L339.34 71.16M329.34 72.16L323.34 72.16L323.34 71.16L329.34 71.16M319.34 72.16L313.34 72.16L313.34 71.16L319.34 71.16M309.34 72.16L303.34 72.16L303.34 71.16L309.34 71.16M299.34 72.16L293.34 72.16L293.34 71.16L299.34 71.16M289.34 72.16L283.34 72.16L283.34 71.16L289.34 71.16M279.34 72.16L273.34 72.16L273.34 71.16L279.34 71.16M269.34 72.16L263.34 72.16L263.34 71.16L269.34 71.16M259.34 72.16L253.34 72.16L253.34 71.16L259.34 71.16M249.34 72.16L243.34 72.16L243.34 71.16L249.34 71.16M239.34 72.16L233.34 72.16L233.34 71.16L239.34 71.16M229.34 72.16L223.34 72.16L223.34 71.16L229.34 71.16M219.34 72.16L213.34 72.16L213.34 71.16L219.34 71.16M209.34 72.16L203.34 72.16L203.34 71.16L209.34 71.16M199.34 72.16L193.34 72.16L193.34 71.16L199.34 71.16M189.34 72.16L183.34 72.16L183.34 71.16L189.34 71.16M179.34 72.16L173.34 72.16L173.34 71.16L179.34 71.16M169.34 72.16L163.34 72.16L163.34 71.16L169.34 71.16M159.34 72.16L153.34 72.16L153.34 71.16L159.34 71.16M149.34 72.16L143.34 72.16L143.34 71.16L149.34 71.16M139.34 72.16L133.34 72.16L133.34 71.16L139.34 71.16M129.34 72.16L123.34 72.16L123.34 71.16L129.34 71.16M119.34 72.16L113.34 72.16L113.34 71.16L119.34 71.16M109.34 72.16L103.34 72.16L103.34 71.16L109.34 71.16" /><path fill="none" stroke="#D4D4D8" stroke-width="1.5" stroke-miterlimit="4" d="M99.46 71.66L99.46 428.57" /><text fill="#D4D4D8" transform="matrix(0 -1 1 0 -155.3 344.94)" font-size="8.35" font-family="IBM Plex Sans" x="75.89, 80.12, 87.41, 89.5, 94.24, 96.67, 98.64, 103.7, 108.57" y="250.12">
					xmin: PEC
			</text><text fill="#D4D4D8" transform="matrix(0 1 -1 0 904.1 -403.86)" font-size="8.35" font-family="IBM Plex Sans" x="591.53, 595.77, 603.05, 607.51, 611.74, 614.18, 616.15, 620.6, 625.44, 629.51, 634.18, 637.24, 642.08, 644.17, 648.91, 653.32, 655.59, 657.56, 662.56, 667.57, 672.58, 674.55, 679.33, 686.61, 688.58, 693.42, 698.01, 702.17, 706.84, 711.58" y="250.12">
					xmax: absorbing, 488 µm beyond
			</text><text fill="#D4D4D8" font-size="8.35" font-family="IBM Plex Sans" x="313.07, 316.94, 324.22, 326.31, 331.05, 333.49, 335.46, 339.91, 344.75, 348.82, 353.49, 356.55, 361.39, 363.48, 368.22, 372.63, 374.9, 376.87, 381.87, 386.88, 391.89, 393.86, 398.64, 405.92, 407.89, 412.73, 417.32, 421.48, 426.15, 430.89" y="441.83">
					zmin: absorbing, 488 µm beyond
			</text><text fill="#D4D4D8" font-size="8.35" font-family="IBM Plex Sans" x="312.13, 316.01, 323.29, 327.75, 331.98, 334.42, 336.39, 340.84, 345.68, 349.75, 354.42, 357.48, 362.32, 364.41, 369.15, 373.56, 375.83, 377.8, 382.8, 387.81, 392.82, 394.79, 399.57, 406.86, 408.83, 413.67, 418.25, 422.41, 427.08, 431.83" y="67.02">
					zmax: absorbing, 488 µm beyond
			</text><use xlink:href="#em3d-connector-section-dark_d6" fill="#3CD2AA" fill-opacity="0.1882" /><clipPath id="em3d-connector-section-dark_cl_1"><rect x="123.18" y="246.54" width="14.23" height="9.49" /></clipPath><g clip-path="url(#em3d-connector-section-dark_cl_1)"><path fill="none" stroke="#3CD2AA" stroke-width="1" stroke-miterlimit="4" d="M113.69 256.02L123.18 246.54" /><path fill="none" stroke="#3CD2AA" stroke-width="1" stroke-miterlimit="4" d="M118.69 256.02L128.18 246.54" /><path fill="none" stroke="#3CD2AA" stroke-width="1" stroke-miterlimit="4" d="M123.69 256.02L133.18 246.54" /><path fill="none" stroke="#3CD2AA" stroke-width="1" stroke-miterlimit="4" d="M128.69 256.02L138.18 246.54" /><path fill="none" stroke="#3CD2AA" stroke-width="1" stroke-miterlimit="4" d="M133.69 256.02L143.18 246.54" /></g><use xlink:href="#em3d-connector-section-dark_d6" fill="none" stroke="#3CD2AA" stroke-width="1.25" stroke-miterlimit="4" /><text fill="#3CD2AA" font-size="9.82" font-weight="600" font-family="IBM Plex Sans" x="140.35, 146.65" y="255.37">
					P1
			</text><use xlink:href="#em3d-connector-section-dark_d7" fill="#3CD2AA" fill-opacity="0.1882" /><clipPath id="em3d-connector-section-dark_cl_2"><rect x="574.62" y="261.6" width="6" height="24.1" /></clipPath><g clip-path="url(#em3d-connector-section-dark_cl_2)"><path fill="none" stroke="#3CD2AA" stroke-width="1" stroke-miterlimit="4" d="M550.52 285.7L574.62 261.6" /><path fill="none" stroke="#3CD2AA" stroke-width="1" stroke-miterlimit="4" d="M555.52 285.7L579.62 261.6" /><path fill="none" stroke="#3CD2AA" stroke-width="1" stroke-miterlimit="4" d="M560.52 285.7L584.62 261.6" /><path fill="none" stroke="#3CD2AA" stroke-width="1" stroke-miterlimit="4" d="M565.52 285.7L589.62 261.6" /><path fill="none" stroke="#3CD2AA" stroke-width="1" stroke-miterlimit="4" d="M570.52 285.7L594.62 261.6" /><path fill="none" stroke="#3CD2AA" stroke-width="1" stroke-miterlimit="4" d="M575.52 285.7L599.62 261.6" /><path fill="none" stroke="#3CD2AA" stroke-width="1" stroke-miterlimit="4" d="M580.52 285.7L604.62 261.6" /></g><use xlink:href="#em3d-connector-section-dark_d7" fill="none" stroke="#3CD2AA" stroke-width="1.25" stroke-miterlimit="4" /><text fill="#3CD2AA" font-size="9.82" font-weight="600" font-family="IBM Plex Sans" x="583.56, 589.86" y="270.43">
					P2
			</text><text fill="#D4D4D8" font-size="9.82" font-weight="600" font-family="IBM Plex Sans" x="748.8, 756.82, 762.31, 765.98, 771.46, 775.32, 778.02, 783.51, 786.39" y="36.87">
					Materials
			</text><rect fill="#8595AF" fill-opacity="0.2353" x="748.8" y="45.61" width="9.82" height="9.82" /><rect fill="none" stroke="#4F5969" stroke-width="1" stroke-miterlimit="4" x="748.8" y="45.61" width="9.82" height="9.82" /><text fill="#D4D4D8" font-size="9.82" font-family="IBM Plex Sans" x="763.53, 769.48, 775.09, 780.58" y="53.95">
					PTFE
			</text><rect fill="#9585AF" fill-opacity="0.2353" x="748.8" y="58.86" width="9.82" height="9.82" /><rect fill="none" stroke="#594F69" stroke-width="1" stroke-miterlimit="4" x="748.8" y="58.86" width="9.82" height="9.82" /><text fill="#D4D4D8" font-size="9.82" font-family="IBM Plex Sans" x="763.53, 769.48, 775.09, 780.58, 786.31, 790.22, 795.41, 798.08, 803.32, 808.1, 812.88, 815.2, 817.87, 823.11, 831.69, 834.14, 839.72, 844.96, 848.41" y="67.21">
					PTFE-glass laminate
			</text><rect fill="#C9A93B" x="748.8" y="72.11" width="9.82" height="9.82" /><rect fill="none" stroke="#786523" stroke-width="1" stroke-miterlimit="4" x="748.8" y="72.11" width="9.82" height="9.82" /><text fill="#D4D4D8" font-size="9.82" font-family="IBM Plex Sans" x="763.53, 769.62, 775.12, 780.7, 786.28, 791.67, 796.6, 800.05, 805.55, 809.15, 811.47, 816.71, 819.38, 822.05, 827.55" y="80.46">
					Connector alloy
			</text><rect fill="#B87333" x="748.8" y="85.37" width="9.82" height="9.82" /><rect fill="none" stroke="#6E451E" stroke-width="1" stroke-miterlimit="4" x="748.8" y="85.37" width="9.82" height="9.82" /><text fill="#D4D4D8" font-size="9.82" font-family="IBM Plex Sans" x="763.53, 769.62, 775.12, 780.82, 786.51, 791.9" y="93.71">
					Copper
			</text><rect fill="#CC783C" x="748.8" y="98.62" width="9.82" height="9.82" /><rect fill="none" stroke="#7A4824" stroke-width="1" stroke-miterlimit="4" x="748.8" y="98.62" width="9.82" height="9.82" /><text fill="#D4D4D8" font-size="9.82" font-family="IBM Plex Sans" x="763.53, 769.62, 775.12, 780.82, 786.51, 791.9" y="106.97">
					Copper
			</text><clipPath id="em3d-connector-section-dark_cl_3"><rect x="748.8" y="117.18" width="9.82" height="9.82" /></clipPath><g clip-path="url(#em3d-connector-section-dark_cl_3)"><path fill="none" stroke="#3CD2AA" stroke-width="1" stroke-miterlimit="4" d="M738.98 127L748.8 117.18" /><path fill="none" stroke="#3CD2AA" stroke-width="1" stroke-miterlimit="4" d="M743.98 127L753.8 117.18" /><path fill="none" stroke="#3CD2AA" stroke-width="1" stroke-miterlimit="4" d="M748.98 127L758.8 117.18" /><path fill="none" stroke="#3CD2AA" stroke-width="1" stroke-miterlimit="4" d="M753.98 127L763.8 117.18" /></g><path fill="none" stroke="#3CD2AA" stroke-width="1" stroke-miterlimit="4" d="M748.8 117.18L758.62 117.18L758.62 127L748.8 127L748.8 117.18Z" /><text fill="#D4D4D8" font-size="9.82" font-family="IBM Plex Sans" x="763.53, 769.48, 774.98, 778.58, 782.02, 784.34, 787.63, 790.09, 793.53, 798.31, 800.63, 805.41, 810.99, 816.38, 821.77, 825.21, 827.89, 830.2, 835.9, 839.5, 845, 847.45, 852.84, 857.78, 861.23, 866.62, 872.31" y="125.53">
					Port (its sheet, projected)
			</text><text fill="#D4D4D8" font-size="9.82" font-weight="600" font-family="IBM Plex Sans" x="9.82, 16.25, 22.13, 24.45, 29.35, 34.83, 39.86, 43.53, 46.23, 51.76, 57.53, 59.85, 65.34, 69.01, 71.33, 76.47, 78.79, 84.68, 87, 92.89, 95.21, 101.03" y="503.67">
					XZ section at y = 0 µm
			</text><text fill="#D4D4D8" font-size="8.35" font-family="IBM Plex Sans" x="9.82, 15.17, 17.14, 21.2, 25.87, 28.14, 30.23, 35.07, 37.04, 39.13, 43.19, 45.16, 50, 53.06, 57.52, 63.93, 68.67, 70.64, 77.05, 81.79, 86.37, 89.43, 94.02, 95.99, 98.07, 101, 105.06, 107.03, 111.87, 116.55, 119.48, 122.41, 127.08, 134.37, 136.34, 141.34, 143.31, 147.48, 149.45, 154.45, 156.42, 158.51, 161.44, 165.5, 167.47, 170.4, 175.07, 179.92, 182.35, 184.32, 188.78, 190.75, 194.81, 199.55, 204.13, 208.72, 211.64, 213.61, 220.02, 222.11, 225.04, 229.78, 231.87, 236.61, 238.58, 243.58, 245.85, 250.86, 255.87, 260.87, 265.88, 270.89, 272.86, 277.6, 284.88, 286.85, 291.53, 294.23, 296.2, 298.29, 301.22, 305.28, 307.25, 312.09, 314.36, 318.82, 323.56, 328.14, 330.41, 332.38, 337.44, 342.11, 345.17, 348.1, 352.17, 354.13, 358.59, 361.65, 366.24, 368.21, 373.05, 376.11, 380.56, 386.97, 391.71, 393.68, 398.52, 401.59, 406.26, 408.35, 412.93, 417.13, 420.06, 424.64, 429.48, 431.45, 436.12, 440.86, 443.79, 448.46, 450.43, 453.36, 458.1, 462.68, 464.65, 469.49, 471.76, 476.22, 480.96, 485.54" y="516.93">
					A solid is drawn where its bottom ≤ y &lt; its top; a sheet within 0.01208 nm of its plane. Ports are drawn projected onto the plane.
			</text><text fill="#D4D4D8" font-size="8.35" font-family="IBM Plex Sans" x="9.82, 15.17, 17.25, 20.32, 22.29, 27.13, 31.8, 36.03, 38.47, 40.44, 44.6, 51.89, 53.97, 58.71, 60.98, 62.95, 67.12, 74.4, 78.86, 83.09, 85.53, 87.5, 91.95, 96.79, 100.86, 105.53, 108.6, 113.44, 115.52, 120.26, 124.67, 126.94, 128.91, 133.92, 138.92, 143.93, 145.9, 150.68, 157.97, 159.94, 164.78, 169.36, 173.52, 178.2, 182.94" y="530.18">
					Air box: ymin, ymax: absorbing, 488 µm beyond
			</text></svg>
