<!-- GENERATED FILE - do not edit. Regenerate every component symbol with:
     dotnet run ––project src/Ui –– ––generate-symbols docs/user/assets/symbols
     (the flags above are ordinary double hyphens; XML comments cannot contain them.)
     Source: src/Ui/Diagnostics/SymbolArtworkGenerator.cs -->
<svg xmlns="http://www.w3.org/2000/svg" xmlns:xlink="http://www.w3.org/1999/xlink" width="240" height="186" viewBox="0 0 240 186"><path fill="none" stroke="#9684FA" stroke-width="1.38" stroke-linecap="round" stroke-linejoin="round" d="M27.69 75L78.46 75" /><path fill="none" stroke="#9684FA" stroke-width="1.38" stroke-linecap="round" stroke-linejoin="round" d="M161.54 75L212.31 75" /><path fill="none" stroke="#9684FA" stroke-width="1.38" stroke-linecap="round" stroke-linejoin="round" d="M78.46 80.54L78.46 69.46Q78.46 69.35 78.47 69.24Q78.47 69.12 78.48 69.01Q78.49 68.9 78.51 68.78Q78.53 68.67 78.55 68.56Q78.57 68.45 78.6 68.34Q78.63 68.23 78.66 68.12Q78.69 68.01 78.73 67.91Q78.77 67.8 78.81 67.7Q78.86 67.59 78.9 67.49Q78.95 67.39 79.01 67.29Q79.06 67.19 79.12 67.09Q79.18 66.99 79.24 66.9Q79.3 66.8 79.37 66.71Q79.44 66.62 79.51 66.53Q79.58 66.45 79.66 66.36Q79.73 66.28 79.81 66.2Q79.89 66.12 79.98 66.04Q80.06 65.97 80.15 65.89Q80.24 65.82 80.33 65.75Q80.42 65.69 80.51 65.62Q80.61 65.56 80.7 65.5Q80.8 65.44 80.9 65.39Q81 65.34 81.1 65.29Q81.21 65.24 81.31 65.2Q81.42 65.15 81.52 65.12Q81.63 65.08 81.74 65.04Q81.85 65.01 81.96 64.98Q82.07 64.96 82.18 64.93Q82.29 64.91 82.4 64.9Q82.51 64.88 82.62 64.87Q82.74 64.86 82.85 64.85Q82.96 64.85 83.08 64.85L156.92 64.85Q157.04 64.85 157.15 64.85Q157.26 64.86 157.38 64.87Q157.49 64.88 157.6 64.9Q157.71 64.91 157.82 64.93Q157.94 64.96 158.04 64.98Q158.15 65.01 158.26 65.04Q158.37 65.08 158.48 65.12Q158.59 65.15 158.69 65.2Q158.79 65.24 158.9 65.29Q159 65.34 159.1 65.39Q159.2 65.44 159.3 65.5Q159.39 65.56 159.49 65.62Q159.58 65.69 159.67 65.75Q159.76 65.82 159.85 65.89Q159.94 65.97 160.02 66.04Q160.11 66.12 160.19 66.2Q160.27 66.28 160.34 66.36Q160.42 66.45 160.49 66.53Q160.56 66.62 160.63 66.71Q160.7 66.8 160.76 66.9Q160.82 66.99 160.88 67.09Q160.94 67.19 160.99 67.29Q161.05 67.39 161.1 67.49Q161.14 67.59 161.19 67.7Q161.23 67.8 161.27 67.91Q161.31 68.01 161.34 68.12Q161.37 68.23 161.4 68.34Q161.43 68.45 161.45 68.56Q161.47 68.67 161.49 68.78Q161.51 68.9 161.52 69.01Q161.53 69.12 161.53 69.24Q161.54 69.35 161.54 69.46L161.54 80.54Q161.54 80.65 161.53 80.76Q161.53 80.88 161.52 80.99Q161.51 81.1 161.49 81.22Q161.47 81.33 161.45 81.44Q161.43 81.55 161.4 81.66Q161.37 81.77 161.34 81.88Q161.31 81.99 161.27 82.09Q161.23 82.2 161.19 82.3Q161.14 82.41 161.1 82.51Q161.05 82.61 160.99 82.71Q160.94 82.81 160.88 82.91Q160.82 83.01 160.76 83.1Q160.7 83.2 160.63 83.29Q160.56 83.38 160.49 83.47Q160.42 83.55 160.34 83.64Q160.27 83.72 160.19 83.8Q160.11 83.88 160.02 83.96Q159.94 84.03 159.85 84.11Q159.76 84.18 159.67 84.25Q159.58 84.31 159.49 84.38Q159.39 84.44 159.3 84.5Q159.2 84.56 159.1 84.61Q159 84.66 158.9 84.71Q158.79 84.76 158.69 84.8Q158.59 84.85 158.48 84.88Q158.37 84.92 158.26 84.96Q158.15 84.99 158.04 85.02Q157.94 85.04 157.82 85.07Q157.71 85.09 157.6 85.1Q157.49 85.12 157.38 85.13Q157.26 85.14 157.15 85.15Q157.04 85.15 156.92 85.15L83.08 85.15Q82.96 85.15 82.85 85.15Q82.74 85.14 82.62 85.13Q82.51 85.12 82.4 85.1Q82.29 85.09 82.18 85.07Q82.07 85.04 81.96 85.02Q81.85 84.99 81.74 84.96Q81.63 84.92 81.52 84.88Q81.42 84.85 81.31 84.8Q81.21 84.76 81.1 84.71Q81 84.66 80.9 84.61Q80.8 84.56 80.7 84.5Q80.61 84.44 80.51 84.38Q80.42 84.31 80.33 84.25Q80.24 84.18 80.15 84.11Q80.06 84.03 79.98 83.96Q79.89 83.88 79.81 83.8Q79.73 83.72 79.66 83.64Q79.58 83.55 79.51 83.47Q79.44 83.38 79.37 83.29Q79.3 83.2 79.24 83.1Q79.18 83.01 79.12 82.91Q79.06 82.81 79.01 82.71Q78.95 82.61 78.9 82.51Q78.86 82.41 78.81 82.3Q78.77 82.2 78.73 82.09Q78.69 81.99 78.66 81.88Q78.63 81.77 78.6 81.66Q78.57 81.55 78.55 81.44Q78.53 81.33 78.51 81.22Q78.49 81.1 78.48 80.99Q78.47 80.88 78.47 80.76Q78.46 80.65 78.46 80.54Z" /><path fill="none" stroke="#9684FA" stroke-width="1.38" stroke-linecap="round" stroke-linejoin="round" d="M78.46 54.69L78.46 49.15Q78.46 49.06 78.47 48.97Q78.48 48.88 78.5 48.79Q78.51 48.7 78.54 48.62Q78.57 48.53 78.6 48.45Q78.64 48.36 78.68 48.28Q78.72 48.2 78.77 48.13Q78.82 48.05 78.88 47.98Q78.94 47.91 79 47.85Q79.07 47.78 79.14 47.73Q79.21 47.67 79.28 47.62Q79.36 47.57 79.44 47.53Q79.52 47.48 79.6 47.45Q79.69 47.41 79.77 47.39Q79.86 47.36 79.95 47.34Q80.04 47.33 80.13 47.32Q80.22 47.31 80.31 47.31L159.69 47.31Q159.78 47.31 159.87 47.32Q159.96 47.33 160.05 47.34Q160.14 47.36 160.23 47.39Q160.32 47.41 160.4 47.45Q160.48 47.48 160.56 47.53Q160.64 47.57 160.72 47.62Q160.79 47.67 160.86 47.73Q160.93 47.78 161 47.85Q161.06 47.91 161.12 47.98Q161.18 48.05 161.23 48.13Q161.28 48.2 161.32 48.28Q161.36 48.36 161.4 48.45Q161.43 48.53 161.46 48.62Q161.49 48.7 161.5 48.79Q161.52 48.88 161.53 48.97Q161.54 49.06 161.54 49.15L161.54 54.69Q161.54 54.78 161.53 54.87Q161.52 54.96 161.5 55.05Q161.49 55.14 161.46 55.23Q161.43 55.32 161.4 55.4Q161.36 55.48 161.32 55.56Q161.28 55.64 161.23 55.72Q161.18 55.79 161.12 55.86Q161.06 55.93 161 56Q160.93 56.06 160.86 56.12Q160.79 56.18 160.72 56.23Q160.64 56.28 160.56 56.32Q160.48 56.36 160.4 56.4Q160.32 56.43 160.23 56.46Q160.14 56.49 160.05 56.5Q159.96 56.52 159.87 56.53Q159.78 56.54 159.69 56.54L80.31 56.54Q80.22 56.54 80.13 56.53Q80.04 56.52 79.95 56.5Q79.86 56.49 79.77 56.46Q79.69 56.43 79.6 56.4Q79.52 56.36 79.44 56.32Q79.36 56.28 79.28 56.23Q79.21 56.18 79.14 56.12Q79.07 56.06 79 56Q78.94 55.93 78.88 55.86Q78.82 55.79 78.77 55.72Q78.72 55.64 78.68 55.56Q78.64 55.48 78.6 55.4Q78.57 55.32 78.54 55.23Q78.51 55.14 78.5 55.05Q78.48 54.96 78.47 54.87Q78.46 54.78 78.46 54.69Z" /><path fill="none" stroke="#9684FA" stroke-width="1.38" stroke-linecap="round" stroke-linejoin="round" d="M78.46 100.85L78.46 95.31Q78.46 95.22 78.47 95.13Q78.48 95.04 78.5 94.95Q78.51 94.86 78.54 94.77Q78.57 94.69 78.6 94.6Q78.64 94.52 78.68 94.44Q78.72 94.36 78.77 94.28Q78.82 94.21 78.88 94.14Q78.94 94.07 79 94Q79.07 93.94 79.14 93.88Q79.21 93.82 79.28 93.77Q79.36 93.72 79.44 93.68Q79.52 93.64 79.6 93.6Q79.69 93.57 79.77 93.54Q79.86 93.51 79.95 93.5Q80.04 93.48 80.13 93.47Q80.22 93.46 80.31 93.46L159.69 93.46Q159.78 93.46 159.87 93.47Q159.96 93.48 160.05 93.5Q160.14 93.51 160.23 93.54Q160.32 93.57 160.4 93.6Q160.48 93.64 160.56 93.68Q160.64 93.72 160.72 93.77Q160.79 93.82 160.86 93.88Q160.93 93.94 161 94Q161.06 94.07 161.12 94.14Q161.18 94.21 161.23 94.28Q161.28 94.36 161.32 94.44Q161.36 94.52 161.4 94.6Q161.43 94.69 161.46 94.77Q161.49 94.86 161.5 94.95Q161.52 95.04 161.53 95.13Q161.54 95.22 161.54 95.31L161.54 100.85Q161.54 100.94 161.53 101.03Q161.52 101.12 161.5 101.21Q161.49 101.3 161.46 101.38Q161.43 101.47 161.4 101.55Q161.36 101.64 161.32 101.72Q161.28 101.8 161.23 101.87Q161.18 101.95 161.12 102.02Q161.06 102.09 161 102.15Q160.93 102.22 160.86 102.27Q160.79 102.33 160.72 102.38Q160.64 102.43 160.56 102.47Q160.48 102.52 160.4 102.55Q160.32 102.59 160.23 102.61Q160.14 102.64 160.05 102.66Q159.96 102.68 159.87 102.68Q159.78 102.69 159.69 102.69L80.31 102.69Q80.22 102.69 80.13 102.68Q80.04 102.68 79.95 102.66Q79.86 102.64 79.77 102.61Q79.69 102.59 79.6 102.55Q79.52 102.52 79.44 102.47Q79.36 102.43 79.28 102.38Q79.21 102.33 79.14 102.27Q79.07 102.22 79 102.15Q78.94 102.09 78.88 102.02Q78.82 101.95 78.77 101.87Q78.72 101.8 78.68 101.72Q78.64 101.64 78.6 101.55Q78.57 101.47 78.54 101.38Q78.51 101.3 78.5 101.21Q78.48 101.12 78.47 101.03Q78.46 100.94 78.46 100.85Z" /><rect fill="none" stroke="#F07846" stroke-width="1" stroke-miterlimit="4" x="24" y="71.31" width="7.38" height="7.38" /><rect fill="none" stroke="#F07846" stroke-width="1" stroke-miterlimit="4" x="208.62" y="71.31" width="7.38" height="7.38" /><text fill="#8CAEFF" font-size="15" font-weight="600" font-family="IBM Plex Sans" x="97.92, 107.55, 117.16, 131.4" y="172.32">
			CPWG
	</text></svg>
