%TF.GenerationSoftware,circuitRF,1.0.8.0*%
%TF.CreationDate,2026-10-09T19:50:57Z*%
%TF.FileFunction,Copper,L1,Top,Signal*%
%TF.FilePolarity,Positive*%
%MOMM*%
%FSLAX46Y46*%
%ADD10C,0.600000*%
G01*
G75*
%TD.N*%
%LPD*%
G36*
G01*
X7025000Y14325000D02*
G01*
X6000000Y14325000D01*
G01*
X6000000Y13725000D01*
G01*
X7025000Y13725000D01*
G01*
X7025000Y14325000D01*
G37*
%LPD*%
D10*
X6300000Y14025000D03*
%LPD*%
X6300000Y14025000D03*
%LPD*%
G36*
G01*
X8050000Y23425000D02*
G01*
X7600000Y23425000D01*
G01*
X7600000Y18925000D01*
G01*
X7375000Y18925000D01*
G01*
X7375000Y17975000D01*
G01*
X8275000Y17975000D01*
G01*
X8275000Y18925000D01*
G01*
X8050000Y18925000D01*
G01*
X8050000Y23425000D01*
G37*
%LPD*%
G36*
G01*
X8275000Y17475000D02*
G01*
X7375000Y17475000D01*
G01*
X7375000Y16525000D01*
G01*
X7600000Y16525000D01*
G01*
X7600000Y14300000D01*
G01*
X7550000Y14300000D01*
G01*
X7550000Y13750000D01*
G01*
X7600000Y13750000D01*
G01*
X7600000Y12025000D01*
G01*
X7550000Y12025000D01*
G01*
X7550000Y11475000D01*
G01*
X8100000Y11475000D01*
G01*
X8100000Y12025000D01*
G01*
X8050000Y12025000D01*
G01*
X8050000Y13750000D01*
G01*
X8100000Y13750000D01*
G01*
X8100000Y14300000D01*
G01*
X8050000Y14300000D01*
G01*
X8050000Y16525000D01*
G01*
X8275000Y16525000D01*
G01*
X8275000Y17475000D01*
G37*
%LPD*%
G36*
G01*
X7300000Y14300000D02*
G01*
X6750000Y14300000D01*
G01*
X6750000Y13750000D01*
G01*
X7300000Y13750000D01*
G01*
X7300000Y14300000D01*
G37*
%LPD*%
G36*
G01*
X8100000Y11225000D02*
G01*
X7550000Y11225000D01*
G01*
X7550000Y10675000D01*
G01*
X7600000Y10675000D01*
G01*
X7600000Y8575000D01*
G01*
X7600000Y7450000D01*
G01*
X7600000Y7225000D01*
G01*
X7600000Y3225000D01*
G01*
X6700000Y3225000D01*
G01*
X0Y3225000D01*
G01*
X0Y2775000D01*
G01*
X7600000Y2775000D01*
G01*
X8050000Y2775000D01*
G01*
X8050000Y3225000D01*
G01*
X8050000Y6325000D01*
G01*
X8050000Y7225000D01*
G01*
X11550000Y7225000D01*
G01*
X11550000Y7675000D01*
G01*
X8950000Y7675000D01*
G01*
X8050000Y7675000D01*
G01*
X8050000Y10675000D01*
G01*
X8100000Y10675000D01*
G01*
X8100000Y11225000D01*
G37*
M02*
